<?xml version="1.0" encoding="UTF-8" standalone="no"?>
<svg
   xmlns:dc="http://purl.org/dc/elements/1.1/"
   xmlns:cc="http://creativecommons.org/ns#"
   xmlns:rdf="http://www.w3.org/1999/02/22-rdf-syntax-ns#"
   xmlns:svg="http://www.w3.org/2000/svg"
   xmlns="http://www.w3.org/2000/svg"
   xmlns:sodipodi="http://sodipodi.sourceforge.net/DTD/sodipodi-0.dtd"
   xmlns:inkscape="http://www.inkscape.org/namespaces/inkscape"
   width="281.03418"
   height="42.431049"
   id="svg3098"
   version="1.1"
   inkscape:version="1.0 (4035a4f, 2020-05-01)"
   sodipodi:docname="cnr_logo_color copy.svg"
   viewbox="0 0 701.10144 81.807785">
  <defs
     id="defs3100">
    <clipPath
       clipPathUnits="userSpaceOnUse"
       id="clipPath3028">
      <path
         inkscape:connector-curvature="0"
         d="M 0,595.275 H 841.89 V 0 H 0 Z"
         id="path3030" />
    </clipPath>
  </defs>
  <sodipodi:namedview
     inkscape:guide-bbox="true"
     showguides="true"
     id="base"
     pagecolor="#ffffff"
     bordercolor="#666666"
     borderopacity="1.0"
     inkscape:pageopacity="0.0"
     inkscape:pageshadow="2"
     inkscape:zoom="2.0979577"
     inkscape:cx="180.11128"
     inkscape:cy="-32.115794"
     inkscape:document-units="px"
     inkscape:current-layer="layer1"
     showgrid="false"
     fit-margin-top="0"
     fit-margin-left="0"
     fit-margin-right="0"
     fit-margin-bottom="0"
     inkscape:window-width="1626"
     inkscape:window-height="844"
     inkscape:window-x="1609"
     inkscape:window-y="147"
     inkscape:window-maximized="0"
     inkscape:document-rotation="0">
    <sodipodi:guide
       id="guide1065"
       orientation="0,-1"
       position="65.426504,1.8500532" />
  </sodipodi:namedview>
  <metadata
     id="metadata3103">
    <rdf:RDF>
      <cc:Work
         rdf:about="">
        <dc:format>image/svg+xml</dc:format>
        <dc:type
           rdf:resource="http://purl.org/dc/dcmitype/StillImage" />
        <dc:title></dc:title>
      </cc:Work>
    </rdf:RDF>
  </metadata>
  <g
     inkscape:label="Livello 1"
     inkscape:groupmode="layer"
     id="layer1"
     transform="translate(-188.7141,-378.57153)">
    <g
       id="g1298">
      <path
         inkscape:connector-curvature="0"
         d="m 209.15742,419.43091 c -11.28861,0 -20.44332,-9.14352 -20.44332,-20.43773 0,-11.27813 9.14353,-20.42165 20.43214,-20.42165 h 7.59864 v 4.23637 h -7.42885 c -8.94159,0 -16.34389,7.25487 -16.34389,16.18528 0,8.9416 7.25487,16.1797 16.18528,16.1797 h 17.07546 v 4.25803 z"
         style="fill:#f9a602;fill-opacity:0.988235;fill-rule:nonzero;stroke:none;stroke-width:1.25"
         id="path3034" />
      <path
         inkscape:connector-curvature="0"
         d="m 216.74509,395.54867 h -7.54414 c -1.92709,0 -3.48245,1.56095 -3.48245,3.49363 v 13.10669 c -2.00884,-0.32211 -3.04644,-0.90065 -4.3342,-1.70838 l -0.044,-11.28372 c 0,-4.31813 3.47756,-7.81175 7.80617,-7.81175 h 7.59864 z"
         style="fill:#f9a602;fill-opacity:0.988235;fill-rule:nonzero;stroke:none;stroke-width:1.25"
         id="path3038" />
      <path
         inkscape:connector-curvature="0"
         d="m 218.49742,384.90954 c 7.70205,0 13.97451,6.17394 14.11077,13.84874 v 20.6725 h -4.18677 v -20.72141 c 0,-5.44796 -4.42713,-9.56905 -9.87509,-9.56905 h -9.38878 c -5.43678,0 -9.92959,4.09384 -9.92959,9.5418 l 0.0384,10.04418 c -2.60974,-2.56013 -4.2203,-5.80291 -4.2203,-9.73883 0,-7.78381 6.31089,-14.094 14.10028,-14.094 z"
         style="fill:#f9a602;fill-opacity:0.988235;fill-rule:nonzero;stroke:none;stroke-width:1.25"
         id="path3042" />
      <g
         id="g1230"
         transform="matrix(0.92611892,0,0,0.92452555,17.789354,30.558429)"
         style="stroke-width:0.432282;stroke-miterlimit:4;stroke-dasharray:none">
        <path
           id="path3155"
           style="font-variant:normal;font-weight:500;font-stretch:normal;font-size:44.8545px;font-family:GeosansLight;-inkscape-font-specification:GeosansLight;writing-mode:lr-tb;fill:#f9a602;fill-opacity:0.988235;fill-rule:nonzero;stroke:#f9a602;stroke-width:0.432282;stroke-miterlimit:4;stroke-dasharray:none;stroke-opacity:0.988235"
           d="m 252.38792,417.10652 v -0.86643 c -0.72607,0.51617 -1.32693,0.89101 -1.80262,1.12451 -0.8262,0.39327 -1.79635,0.5899 -2.91046,0.5899 -1.7901,0 -3.26098,-0.56532 -4.41263,-1.69597 -1.13916,-1.11836 -1.70874,-2.55626 -1.70874,-4.31368 0,-1.7574 0.57584,-3.20145 1.72751,-4.33211 1.15166,-1.13063 2.61629,-1.69596 4.39386,-1.69597 1.039,1e-5 2.03419,0.19051 2.98557,0.57147 0.6259,0.25809 1.20174,0.6022 1.72751,1.03233 v -0.94016 c -0.51325,-0.39325 -1.04527,-0.69435 -1.59606,-0.90329 -0.92635,-0.3318 -1.96535,-0.49771 -3.11702,-0.49773 -2.02794,2e-5 -3.6866,0.63293 -4.97596,1.89876 -1.27684,1.25355 -1.91528,2.87579 -1.91527,4.8667 -1e-5,1.99093 0.64468,3.61931 1.93405,4.88515 1.27685,1.25354 2.92924,1.88032 4.95718,1.88032 0.17525,0 0.34425,-0.006 0.50699,-0.0185 0.16272,0 0.31294,-0.006 0.45065,-0.0184 1.20173,-0.11061 2.15312,-0.41784 2.85413,-0.92172 l 0.90131,-0.64521" />
        <path
           id="path3157"
           style="font-variant:normal;font-weight:500;font-stretch:normal;font-size:44.8545px;font-family:GeosansLight;-inkscape-font-specification:GeosansLight;writing-mode:lr-tb;fill:#f9a602;fill-opacity:0.988235;fill-rule:nonzero;stroke:#f9a602;stroke-width:0.432282;stroke-miterlimit:4;stroke-dasharray:none;stroke-opacity:0.988235"
           d="m 261.04423,414.72846 c -1e-5,-1.10606 -0.38807,-2.04008 -1.16419,-2.80205 -0.77613,-0.76195 -1.72126,-1.14292 -2.83536,-1.14293 -1.12663,10e-6 -2.07176,0.38714 -2.83535,1.16137 -0.77613,0.76197 -1.16419,1.68984 -1.16419,2.78361 0,1.10607 0.38806,2.04008 1.16419,2.80204 0.76359,0.74968 1.70872,1.12451 2.83535,1.12451 1.12663,0 2.078,-0.38098 2.85413,-1.14293 0.76361,-0.74968 1.14541,-1.67755 1.14542,-2.78362 m -0.7511,0 c 0,0.88486 -0.31922,1.64068 -0.95763,2.26745 -0.62592,0.61448 -1.38951,0.92172 -2.29082,0.92172 -0.88879,0 -1.6524,-0.31338 -2.29082,-0.94016 -0.63842,-0.62677 -0.95764,-1.37644 -0.95763,-2.24901 -1e-5,-0.86027 0.32546,-1.60994 0.97641,-2.24901 0.63842,-0.63905 1.39576,-0.95859 2.27204,-0.95859 0.91382,0 1.68368,0.31339 2.30959,0.94016 0.62591,0.61449 0.93886,1.37031 0.93886,2.26744" />
        <path
           id="path3159"
           style="font-variant:normal;font-weight:500;font-stretch:normal;font-size:44.8545px;font-family:GeosansLight;-inkscape-font-specification:GeosansLight;writing-mode:lr-tb;fill:#f9a602;fill-opacity:0.988235;fill-rule:nonzero;stroke:#f9a602;stroke-width:0.432282;stroke-miterlimit:4;stroke-dasharray:none;stroke-opacity:0.988235"
           d="m 268.9682,418.52597 v -4.62706 c -1e-5,-0.97088 -0.25663,-1.72668 -0.76986,-2.26744 -0.51326,-0.54074 -1.25182,-0.81111 -2.21571,-0.81112 -1.13916,10e-6 -1.88399,0.33797 -2.23449,1.0139 v -0.92173 h -0.76987 v 7.61345 h 0.76987 v -4.62706 c -10e-6,-0.72509 0.19403,-1.29655 0.58209,-1.71441 0.37554,-0.41783 0.92633,-0.62676 1.6524,-0.62677 1.47713,1e-5 2.2157,0.80498 2.21571,2.41492 v 4.55332 h 0.76986" />
        <path
           id="path3161"
           style="font-variant:normal;font-weight:500;font-stretch:normal;font-size:44.8545px;font-family:GeosansLight;-inkscape-font-specification:GeosansLight;writing-mode:lr-tb;fill:#f9a602;fill-opacity:0.988235;fill-rule:nonzero;stroke:#f9a602;stroke-width:0.432282;stroke-miterlimit:4;stroke-dasharray:none;stroke-opacity:0.988235"
           d="m 275.99089,416.44288 c -10e-6,-0.68823 -0.26916,-1.23511 -0.80743,-1.64068 -0.1377,-0.0983 -0.34425,-0.20891 -0.61964,-0.33181 -0.27541,-0.13519 -0.62592,-0.27652 -1.05153,-0.424 -0.48821,-0.15977 -0.84498,-0.32567 -1.0703,-0.49773 -0.2754,-0.22121 -0.41309,-0.50387 -0.41309,-0.84799 0,-0.77425 0.45064,-1.16137 1.35195,-1.16137 0.66346,0 1.208,0.20893 1.63363,0.62677 l 0.56331,-0.4793 c -0.60088,-0.58989 -1.3332,-0.88485 -2.19694,-0.88485 -0.62591,0 -1.13289,0.19049 -1.52095,0.57146 -0.40058,0.3687 -0.60088,0.81113 -0.60087,1.32729 -10e-6,0.6022 0.20029,1.06306 0.60087,1.38258 0.27539,0.22123 0.72604,0.44244 1.35196,0.66365 0.33798,0.1229 0.61964,0.2335 0.84497,0.33182 0.23784,0.086 0.41936,0.16591 0.54454,0.23965 0.4131,0.31953 0.61964,0.69437 0.61965,1.12451 -1e-5,0.98316 -0.58837,1.47475 -1.76506,1.47475 -0.53828,0 -0.96389,-0.11674 -1.27685,-0.35025 -0.30044,-0.20893 -0.55706,-0.50387 -0.76986,-0.88486 l -0.65721,0.38712 c 0.60087,1.06921 1.50217,1.60381 2.70392,1.60381 0.70101,0 1.30188,-0.20893 1.80261,-0.62677 0.48821,-0.40556 0.73231,-0.94016 0.73232,-1.6038" />
        <path
           id="path3163"
           style="font-variant:normal;font-weight:500;font-stretch:normal;font-size:44.8545px;font-family:GeosansLight;-inkscape-font-specification:GeosansLight;writing-mode:lr-tb;fill:#f9a602;fill-opacity:0.988235;fill-rule:nonzero;stroke:#f9a602;stroke-width:0.432282;stroke-miterlimit:4;stroke-dasharray:none;stroke-opacity:0.988235"
           d="m 278.80746,408.94003 c -0.10015,-0.40554 -0.30669,-0.60833 -0.61965,-0.60834 -0.41309,0.0738 -0.61964,0.27653 -0.61964,0.60834 0.0125,0.18435 0.0751,0.33182 0.18777,0.44243 0.15022,0.11062 0.29417,0.16591 0.43187,0.16591 0.4131,0 0.61965,-0.20277 0.61965,-0.60834 m -0.2441,9.58594 v -7.61345 h -0.76986 v 7.61345 h 0.76986" />
        <path
           id="path3165"
           style="font-variant:normal;font-weight:500;font-stretch:normal;font-size:44.8545px;font-family:GeosansLight;-inkscape-font-specification:GeosansLight;writing-mode:lr-tb;fill:#f9a602;fill-opacity:0.988235;fill-rule:nonzero;stroke:#f9a602;stroke-width:0.432282;stroke-miterlimit:4;stroke-dasharray:none;stroke-opacity:0.988235"
           d="m 288.40261,418.36006 v -7.44754 h -0.76986 v 1.32728 c -0.8262,-0.95858 -1.85894,-1.43788 -3.09824,-1.43788 -1.12663,0 -2.07801,0.38098 -2.85414,1.14293 -0.7636,0.74968 -1.14541,1.67755 -1.14541,2.78361 0,1.10607 0.38807,2.04008 1.1642,2.80204 0.7636,0.74968 1.70872,1.12451 2.83535,1.12451 1.25181,0 2.28455,-0.4793 3.09824,-1.43789 v 1.12451 c -10e-6,0.9463 -0.26915,1.68367 -0.80742,2.21213 -0.52576,0.52846 -1.27059,0.79269 -2.23448,0.79269 -0.71354,0 -1.32693,-0.11675 -1.84017,-0.35025 -0.65095,-0.29496 -1.04526,-0.74353 -1.18296,-1.34572 h -0.76987 c 0.41309,1.63452 1.67743,2.45178 3.793,2.45178 1.13913,0 2.05922,-0.34411 2.76024,-1.03233 0.70101,-0.68822 1.05151,-1.59151 1.05152,-2.70987 m -0.61964,-3.6316 c -10e-6,0.88486 -0.31923,1.64068 -0.95764,2.26745 -0.62591,0.61448 -1.38952,0.92172 -2.29082,0.92172 -0.88879,0 -1.65239,-0.31338 -2.29082,-0.94016 -0.63842,-0.62677 -0.95763,-1.37644 -0.95763,-2.24901 0,-0.88485 0.31921,-1.64066 0.95763,-2.26744 0.6259,-0.61447 1.38951,-0.92172 2.29082,-0.92172 0.88879,0 1.65239,0.31339 2.29082,0.94015 0.63841,0.62679 0.95763,1.37645 0.95764,2.24901" />
        <path
           id="path3167"
           style="font-variant:normal;font-weight:500;font-stretch:normal;font-size:44.8545px;font-family:GeosansLight;-inkscape-font-specification:GeosansLight;writing-mode:lr-tb;fill:#f9a602;fill-opacity:0.988235;fill-rule:nonzero;stroke:#f9a602;stroke-width:0.432282;stroke-miterlimit:4;stroke-dasharray:none;stroke-opacity:0.988235"
           d="m 291.65108,418.52597 v -13.64153 h -0.7511 v 13.64153 h 0.7511" />
        <path
           id="path3169"
           style="font-variant:normal;font-weight:500;font-stretch:normal;font-size:44.8545px;font-family:GeosansLight;-inkscape-font-specification:GeosansLight;writing-mode:lr-tb;fill:#f9a602;fill-opacity:0.988235;fill-rule:nonzero;stroke:#f9a602;stroke-width:0.432282;stroke-miterlimit:4;stroke-dasharray:none;stroke-opacity:0.988235"
           d="m 294.48642,408.94003 c -0.10015,-0.40554 -0.3067,-0.60833 -0.61965,-0.60834 -0.41311,0.0738 -0.61966,0.27653 -0.61966,0.60834 0.0125,0.18435 0.0751,0.33182 0.18778,0.44243 0.15022,0.11062 0.29418,0.16591 0.43188,0.16591 0.41309,0 0.61965,-0.20277 0.61965,-0.60834 m -0.24411,9.58594 v -7.61345 h -0.76986 v 7.61345 h 0.76986" />
        <path
           id="path3171"
           style="font-variant:normal;font-weight:500;font-stretch:normal;font-size:44.8545px;font-family:GeosansLight;-inkscape-font-specification:GeosansLight;writing-mode:lr-tb;fill:#f9a602;fill-opacity:0.988235;fill-rule:nonzero;stroke:#f9a602;stroke-width:0.432282;stroke-miterlimit:4;stroke-dasharray:none;stroke-opacity:0.988235"
           d="m 304.21301,414.72846 c -10e-6,-1.10606 -0.38806,-2.04008 -1.16419,-2.80205 -0.77613,-0.76195 -1.72124,-1.14292 -2.83536,-1.14293 -1.12663,10e-6 -2.07175,0.38714 -2.83535,1.16137 -0.77613,0.76197 -1.16419,1.68984 -1.16419,2.78361 0,1.10607 0.38806,2.04008 1.16419,2.80204 0.7636,0.74968 1.70872,1.12451 2.83535,1.12451 1.12663,0 2.07802,-0.38098 2.85415,-1.14293 0.76359,-0.74968 1.14539,-1.67755 1.1454,-2.78362 m -0.75108,0 c -2e-5,0.88486 -0.31922,1.64068 -0.95765,2.26745 -0.6259,0.61448 -1.38951,0.92172 -2.29082,0.92172 -0.88878,0 -1.65239,-0.31338 -2.29081,-0.94016 -0.63843,-0.62677 -0.95764,-1.37644 -0.95764,-2.24901 0,-0.86027 0.32547,-1.60994 0.97642,-2.24901 0.63842,-0.63905 1.39576,-0.95859 2.27203,-0.95859 0.91383,0 1.68369,0.31339 2.30961,0.94016 0.62589,0.61449 0.93884,1.37031 0.93886,2.26744" />
        <path
           id="path3173"
           style="font-variant:normal;font-weight:500;font-stretch:normal;font-size:44.8545px;font-family:GeosansLight;-inkscape-font-specification:GeosansLight;writing-mode:lr-tb;fill:#f9a602;fill-opacity:0.988235;fill-rule:nonzero;stroke:#f9a602;stroke-width:0.432282;stroke-miterlimit:4;stroke-dasharray:none;stroke-opacity:0.988235"
           d="m 321.91993,418.74718 v -13.38345 h -0.76988 v 11.4294 l -10.00824,-11.52156 v 13.2544 h 0.75109 v -11.1713 l 10.02703,11.39251" />
        <path
           id="path3175"
           style="font-variant:normal;font-weight:500;font-stretch:normal;font-size:44.8545px;font-family:GeosansLight;-inkscape-font-specification:GeosansLight;writing-mode:lr-tb;fill:#f9a602;fill-opacity:0.988235;fill-rule:nonzero;stroke:#f9a602;stroke-width:0.432282;stroke-miterlimit:4;stroke-dasharray:none;stroke-opacity:0.988235"
           d="m 331.64653,418.52597 v -7.61345 h -0.76988 v 1.32728 c -0.8262,-0.95858 -1.85895,-1.43788 -3.09823,-1.43788 -1.12663,0 -2.07801,0.38098 -2.85414,1.14293 -0.7636,0.74968 -1.14541,1.67755 -1.14541,2.78361 0,1.10607 0.38807,2.04008 1.16419,2.80204 0.7636,0.74968 1.70873,1.12451 2.83536,1.12451 1.25181,0 2.28455,-0.4793 3.09823,-1.43789 v 1.30885 h 0.76988 m -0.61966,-3.79751 c -10e-6,0.88486 -0.31922,1.64068 -0.95763,2.26745 -0.62592,0.61448 -1.38952,0.92172 -2.29082,0.92172 -0.88879,0 -1.6524,-0.31338 -2.29082,-0.94016 -0.63842,-0.62677 -0.95763,-1.37644 -0.95763,-2.24901 0,-0.88485 0.31921,-1.64066 0.95763,-2.26744 0.6259,-0.61447 1.38951,-0.92172 2.29082,-0.92172 0.88878,0 1.65239,0.31339 2.29082,0.94015 0.63841,0.62679 0.95762,1.37645 0.95763,2.24901" />
        <path
           id="path3177"
           style="font-variant:normal;font-weight:500;font-stretch:normal;font-size:44.8545px;font-family:GeosansLight;-inkscape-font-specification:GeosansLight;writing-mode:lr-tb;fill:#f9a602;fill-opacity:0.988235;fill-rule:nonzero;stroke:#f9a602;stroke-width:0.432282;stroke-miterlimit:4;stroke-dasharray:none;stroke-opacity:0.988235"
           d="M 340.65957,410.91252 H 333.881 v 0.71895 h 5.22005 l -5.53927,6.8945 h 7.0039 v -0.75581 h -5.40783 l 5.50172,-6.85764" />
        <path
           id="path3179"
           style="font-variant:normal;font-weight:500;font-stretch:normal;font-size:44.8545px;font-family:GeosansLight;-inkscape-font-specification:GeosansLight;writing-mode:lr-tb;fill:#f9a602;fill-opacity:0.988235;fill-rule:nonzero;stroke:#f9a602;stroke-width:0.432282;stroke-miterlimit:4;stroke-dasharray:none;stroke-opacity:0.988235"
           d="m 343.66392,408.94003 c -0.10015,-0.40554 -0.3067,-0.60833 -0.61965,-0.60834 -0.41309,0.0738 -0.61964,0.27653 -0.61964,0.60834 0.0125,0.18435 0.0751,0.33182 0.18777,0.44243 0.15022,0.11062 0.29417,0.16591 0.43187,0.16591 0.4131,0 0.61965,-0.20277 0.61965,-0.60834 m -0.24411,9.58594 v -7.61345 h -0.76986 v 7.61345 h 0.76986" />
        <path
           id="path3181"
           style="font-variant:normal;font-weight:500;font-stretch:normal;font-size:44.8545px;font-family:GeosansLight;-inkscape-font-specification:GeosansLight;writing-mode:lr-tb;fill:#f9a602;fill-opacity:0.988235;fill-rule:nonzero;stroke:#f9a602;stroke-width:0.432282;stroke-miterlimit:4;stroke-dasharray:none;stroke-opacity:0.988235"
           d="m 353.39052,414.72846 c -10e-6,-1.10606 -0.38807,-2.04008 -1.16419,-2.80205 -0.77613,-0.76195 -1.72125,-1.14292 -2.83536,-1.14293 -1.12664,10e-6 -2.07176,0.38714 -2.83535,1.16137 -0.77613,0.76197 -1.1642,1.68984 -1.1642,2.78361 0,1.10607 0.38807,2.04008 1.1642,2.80204 0.76359,0.74968 1.70871,1.12451 2.83535,1.12451 1.12663,0 2.078,-0.38098 2.85414,-1.14293 0.7636,-0.74968 1.1454,-1.67755 1.14541,-2.78362 m -0.75109,0 c -1e-5,0.88486 -0.31922,1.64068 -0.95764,2.26745 -0.62591,0.61448 -1.38952,0.92172 -2.29082,0.92172 -0.88879,0 -1.65239,-0.31338 -2.29082,-0.94016 -0.63842,-0.62677 -0.95764,-1.37644 -0.95764,-2.24901 0,-0.86027 0.32548,-1.60994 0.97642,-2.24901 0.63842,-0.63905 1.39577,-0.95859 2.27204,-0.95859 0.91382,0 1.68369,0.31339 2.3096,0.94016 0.6259,0.61449 0.93885,1.37031 0.93886,2.26744" />
        <path
           id="path3183"
           style="font-variant:normal;font-weight:500;font-stretch:normal;font-size:44.8545px;font-family:GeosansLight;-inkscape-font-specification:GeosansLight;writing-mode:lr-tb;fill:#f9a602;fill-opacity:0.988235;fill-rule:nonzero;stroke:#f9a602;stroke-width:0.432282;stroke-miterlimit:4;stroke-dasharray:none;stroke-opacity:0.988235"
           d="m 361.31451,418.52597 v -4.62706 c -10e-6,-0.97088 -0.25663,-1.72668 -0.76986,-2.26744 -0.51326,-0.54074 -1.25183,-0.81111 -2.21572,-0.81112 -1.13915,10e-6 -1.88398,0.33797 -2.23449,1.0139 v -0.92173 h -0.76986 v 7.61345 h 0.76986 v -4.62706 c 0,-0.72509 0.19403,-1.29655 0.5821,-1.71441 0.37553,-0.41783 0.92633,-0.62676 1.65239,-0.62677 1.47713,1e-5 2.2157,0.80498 2.21572,2.41492 v 4.55332 h 0.76986" />
        <path
           id="path3185"
           style="font-variant:normal;font-weight:500;font-stretch:normal;font-size:44.8545px;font-family:GeosansLight;-inkscape-font-specification:GeosansLight;writing-mode:lr-tb;fill:#f9a602;fill-opacity:0.988235;fill-rule:nonzero;stroke:#f9a602;stroke-width:0.432282;stroke-miterlimit:4;stroke-dasharray:none;stroke-opacity:0.988235"
           d="m 371.07864,418.52597 v -7.61345 h -0.76986 v 1.32728 c -0.8262,-0.95858 -1.85894,-1.43788 -3.09824,-1.43788 -1.12663,0 -2.07801,0.38098 -2.85413,1.14293 -0.76361,0.74968 -1.14541,1.67755 -1.14541,2.78361 0,1.10607 0.38806,2.04008 1.16419,2.80204 0.76359,0.74968 1.70872,1.12451 2.83535,1.12451 1.25181,0 2.28456,-0.4793 3.09824,-1.43789 v 1.30885 h 0.76986 m -0.61963,-3.79751 c -10e-6,0.88486 -0.31923,1.64068 -0.95765,2.26745 -0.62591,0.61448 -1.38952,0.92172 -2.29082,0.92172 -0.8888,0 -1.65239,-0.31338 -2.29082,-0.94016 -0.63843,-0.62677 -0.95764,-1.37644 -0.95763,-2.24901 -10e-6,-0.88485 0.3192,-1.64066 0.95763,-2.26744 0.62591,-0.61447 1.38951,-0.92172 2.29082,-0.92172 0.88878,0 1.65239,0.31339 2.29082,0.94015 0.63842,0.62679 0.95764,1.37645 0.95765,2.24901" />
        <path
           id="path3187"
           style="font-variant:normal;font-weight:500;font-stretch:normal;font-size:44.8545px;font-family:GeosansLight;-inkscape-font-specification:GeosansLight;writing-mode:lr-tb;fill:#f9a602;fill-opacity:0.988235;fill-rule:nonzero;stroke:#f9a602;stroke-width:0.432282;stroke-miterlimit:4;stroke-dasharray:none;stroke-opacity:0.988235"
           d="m 374.32711,418.52597 v -13.64153 h -0.75109 v 13.64153 h 0.75109" />
        <path
           id="path3189"
           style="font-variant:normal;font-weight:500;font-stretch:normal;font-size:44.8545px;font-family:GeosansLight;-inkscape-font-specification:GeosansLight;writing-mode:lr-tb;fill:#f9a602;fill-opacity:0.988235;fill-rule:nonzero;stroke:#f9a602;stroke-width:0.432282;stroke-miterlimit:4;stroke-dasharray:none;stroke-opacity:0.988235"
           d="m 384.39168,414.56255 c 0,-1.11835 -0.38181,-2.02779 -1.14541,-2.7283 -0.75109,-0.70051 -1.70247,-1.05076 -2.85413,-1.05077 -1.16419,10e-6 -2.12809,0.37484 -2.89169,1.12451 -0.75109,0.73738 -1.12663,1.67754 -1.12663,2.82047 0,1.13065 0.3818,2.07082 1.14541,2.82048 0.75108,0.74967 1.70872,1.12451 2.87291,1.12451 0.4882,0 0.92634,-0.0614 1.31441,-0.18435 1.01395,-0.31953 1.76505,-0.93401 2.25326,-1.84345 l -0.69475,-0.31339 c -0.42563,0.67594 -0.90758,1.12451 -1.44586,1.34572 -0.42562,0.17206 -0.90131,0.25809 -1.42706,0.25809 -1.02649,0 -1.83391,-0.30725 -2.42226,-0.92173 -0.56332,-0.60219 -0.84498,-1.41946 -0.84498,-2.45179 h 7.26678 m -0.86375,-0.71895 h -6.29036 c 0.50072,-1.54849 1.55225,-2.32274 3.15457,-2.32274 0.7636,0 1.43958,0.20893 2.02794,0.62677 0.61338,0.43015 0.98266,0.99547 1.10785,1.69597" />
        <path
           id="path3191"
           style="font-variant:normal;font-weight:500;font-stretch:normal;font-size:44.8545px;font-family:GeosansLight;-inkscape-font-specification:GeosansLight;writing-mode:lr-tb;fill:#f9a602;fill-opacity:0.988235;fill-rule:nonzero;stroke:#f9a602;stroke-width:0.432282;stroke-miterlimit:4;stroke-dasharray:none;stroke-opacity:0.988235"
           d="m 398.45581,418.52597 v -13.64153 h -0.76987 v 7.41067 c -0.86376,-0.99546 -1.91528,-1.49319 -3.15456,-1.49319 -1.12664,0 -2.07802,0.38098 -2.85415,1.14293 -0.7636,0.74968 -1.1454,1.67755 -1.1454,2.78361 0,1.10607 0.38806,2.04008 1.16418,2.80204 0.76361,0.74968 1.70873,1.12451 2.83537,1.12451 1.27684,0 2.32835,-0.49773 3.15456,-1.49319 v 1.36415 h 0.76987 m -0.67598,-3.79751 c -1e-5,0.88486 -0.31921,1.64068 -0.95764,2.26745 -0.62591,0.61448 -1.38952,0.92172 -2.29081,0.92172 -0.8888,0 -1.6524,-0.31338 -2.29082,-0.94016 -0.63844,-0.62677 -0.95765,-1.37644 -0.95765,-2.24901 0,-0.88485 0.31921,-1.64066 0.95765,-2.26744 0.6259,-0.61447 1.3895,-0.92172 2.29082,-0.92172 0.88877,0 1.65238,0.31339 2.29081,0.94015 0.63843,0.62679 0.95763,1.37645 0.95764,2.24901" />
        <path
           id="path3193"
           style="font-variant:normal;font-weight:500;font-stretch:normal;font-size:44.8545px;font-family:GeosansLight;-inkscape-font-specification:GeosansLight;writing-mode:lr-tb;fill:#f9a602;fill-opacity:0.988235;fill-rule:nonzero;stroke:#f9a602;stroke-width:0.432282;stroke-miterlimit:4;stroke-dasharray:none;stroke-opacity:0.988235"
           d="m 408.16366,414.56255 c -10e-6,-1.11835 -0.38182,-2.02779 -1.14542,-2.7283 -0.75109,-0.70051 -1.70247,-1.05076 -2.85413,-1.05077 -1.16419,10e-6 -2.12809,0.37484 -2.89169,1.12451 -0.7511,0.73738 -1.12663,1.67754 -1.12663,2.82047 0,1.13065 0.38181,2.07082 1.1454,2.82048 0.75109,0.74967 1.70873,1.12451 2.87292,1.12451 0.4882,0 0.92634,-0.0614 1.3144,-0.18435 1.01397,-0.31953 1.76505,-0.93401 2.25327,-1.84345 l -0.69475,-0.31339 c -0.42563,0.67594 -0.90758,1.12451 -1.44585,1.34572 -0.42563,0.17206 -0.90131,0.25809 -1.42707,0.25809 -1.02649,0 -1.83391,-0.30725 -2.42226,-0.92173 -0.56332,-0.60219 -0.84498,-1.41946 -0.84498,-2.45179 h 7.26679 m -0.86376,-0.71895 h -6.29036 c 0.50073,-1.54849 1.55225,-2.32274 3.15457,-2.32274 0.7636,0 1.43958,0.20893 2.02793,0.62677 0.61338,0.43015 0.98267,0.99547 1.10786,1.69597" />
        <path
           id="path3195"
           style="font-variant:normal;font-weight:500;font-stretch:normal;font-size:44.8545px;font-family:GeosansLight;-inkscape-font-specification:GeosansLight;writing-mode:lr-tb;fill:#f9a602;fill-opacity:0.988235;fill-rule:nonzero;stroke:#f9a602;stroke-width:0.432282;stroke-miterlimit:4;stroke-dasharray:none;stroke-opacity:0.988235"
           d="m 410.9051,418.52597 v -13.64153 h -0.75109 v 13.64153 h 0.75109" />
        <path
           id="path3197"
           style="font-variant:normal;font-weight:500;font-stretch:normal;font-size:44.8545px;font-family:GeosansLight;-inkscape-font-specification:GeosansLight;writing-mode:lr-tb;fill:#f9a602;fill-opacity:0.988235;fill-rule:nonzero;stroke:#f9a602;stroke-width:0.432282;stroke-miterlimit:4;stroke-dasharray:none;stroke-opacity:0.988235"
           d="m 413.30859,418.52597 v -13.64153 h -0.75109 v 13.64153 h 0.75109" />
        <path
           id="path3199"
           style="font-variant:normal;font-weight:500;font-stretch:normal;font-size:44.8545px;font-family:GeosansLight;-inkscape-font-specification:GeosansLight;writing-mode:lr-tb;fill:#f9a602;fill-opacity:0.988235;fill-rule:nonzero;stroke:#f9a602;stroke-width:0.432282;stroke-miterlimit:4;stroke-dasharray:none;stroke-opacity:0.988235"
           d="m 423.37317,414.56255 c -1e-5,-1.11835 -0.38182,-2.02779 -1.1454,-2.7283 -0.7511,-0.70051 -1.70248,-1.05076 -2.85415,-1.05077 -1.16419,10e-6 -2.12808,0.37484 -2.89169,1.12451 -0.75108,0.73738 -1.12663,1.67754 -1.12663,2.82047 0,1.13065 0.38181,2.07082 1.14541,2.82048 0.75109,0.74967 1.70872,1.12451 2.87291,1.12451 0.48821,0 0.92634,-0.0614 1.31441,-0.18435 1.01396,-0.31953 1.76505,-0.93401 2.25326,-1.84345 l -0.69475,-0.31339 c -0.42563,0.67594 -0.90757,1.12451 -1.44585,1.34572 -0.42562,0.17206 -0.90131,0.25809 -1.42707,0.25809 -1.02649,0 -1.83391,-0.30725 -2.42226,-0.92173 -0.56331,-0.60219 -0.84497,-1.41946 -0.84496,-2.45179 h 7.26677 m -0.86375,-0.71895 h -6.29037 c 0.50073,-1.54849 1.55224,-2.32274 3.15457,-2.32274 0.7636,0 1.43958,0.20893 2.02794,0.62677 0.61338,0.43015 0.98266,0.99547 1.10786,1.69597" />
        <path
           id="path3201"
           style="font-variant:normal;font-weight:500;font-stretch:normal;font-size:44.8545px;font-family:GeosansLight;-inkscape-font-specification:GeosansLight;writing-mode:lr-tb;fill:#f9a602;fill-opacity:0.988235;fill-rule:nonzero;stroke:#f9a602;stroke-width:0.432282;stroke-miterlimit:4;stroke-dasharray:none;stroke-opacity:0.988235"
           d="m 437.49361,418.52597 -4.29997,-6.58112 c 0.53827,1e-5 1.03273,-0.0614 1.48339,-0.18434 0.45065,-0.13518 0.83872,-0.33796 1.16419,-0.60834 0.33798,-0.27036 0.5946,-0.61448 0.76986,-1.03233 0.18777,-0.41784 0.28165,-0.91557 0.28166,-1.4932 -1e-5,-0.52845 -0.10015,-0.99545 -0.30044,-1.40102 -0.18777,-0.40555 -0.4444,-0.74351 -0.76986,-1.0139 -0.32548,-0.28264 -0.71354,-0.49157 -1.16418,-0.62677 -0.45066,-0.14746 -0.92635,-0.2212 -1.42707,-0.22122 h -3.09824 v 13.16224 h 0.75108 v -6.58112 h 1.44586 l 4.26241,6.58112 h 0.90131 m -1.38951,-9.91776 c -1e-5,0.83571 -0.25037,1.47477 -0.75109,1.91719 -0.48822,0.44243 -1.1329,0.66365 -1.93405,0.66364 h -2.53493 v -5.06949 h 2.32838 c 0.40058,10e-6 0.77612,0.0553 1.12664,0.16591 0.35049,0.0983 0.65718,0.25194 0.92008,0.46086 0.26286,0.19665 0.46942,0.45473 0.61965,0.77425 0.15021,0.30725 0.22531,0.6698 0.22532,1.08764" />
        <path
           id="path3203"
           style="font-variant:normal;font-weight:500;font-stretch:normal;font-size:44.8545px;font-family:GeosansLight;-inkscape-font-specification:GeosansLight;writing-mode:lr-tb;fill:#f9a602;fill-opacity:0.988235;fill-rule:nonzero;stroke:#f9a602;stroke-width:0.432282;stroke-miterlimit:4;stroke-dasharray:none;stroke-opacity:0.988235"
           d="m 440.17877,408.94003 c -0.10016,-0.40554 -0.30671,-0.60833 -0.61966,-0.60834 -0.41309,0.0738 -0.61964,0.27653 -0.61964,0.60834 0.0125,0.18435 0.0751,0.33182 0.18776,0.44243 0.15023,0.11062 0.29418,0.16591 0.43188,0.16591 0.4131,0 0.61965,-0.20277 0.61966,-0.60834 m -0.24411,9.58594 v -7.61345 h -0.76987 v 7.61345 h 0.76987" />
        <path
           id="path3205"
           style="font-variant:normal;font-weight:500;font-stretch:normal;font-size:44.8545px;font-family:GeosansLight;-inkscape-font-specification:GeosansLight;writing-mode:lr-tb;fill:#f9a602;fill-opacity:0.988235;fill-rule:nonzero;stroke:#f9a602;stroke-width:0.432282;stroke-miterlimit:4;stroke-dasharray:none;stroke-opacity:0.988235"
           d="m 448.51584,417.99137 v -0.94016 c -0.67598,0.58991 -1.46462,0.88486 -2.36593,0.88486 -0.95138,0 -1.73376,-0.30109 -2.34714,-0.9033 -0.6134,-0.60219 -0.92009,-1.37029 -0.92009,-2.30431 0,-0.9463 0.30669,-1.72055 0.92009,-2.32274 0.60086,-0.58989 1.38324,-0.88486 2.34714,-0.88486 0.42562,0 0.87627,0.0799 1.35196,0.23965 l 0.52576,0.27652 0.48821,0.31338 v -0.90329 c -0.58836,-0.44242 -1.377,-0.66363 -2.36593,-0.66364 -1.15167,10e-6 -2.10931,0.37484 -2.87291,1.12451 -0.7636,0.74967 -1.1454,1.68983 -1.1454,2.82047 0,1.13065 0.3818,2.07082 1.1454,2.82048 0.7636,0.74967 1.72124,1.12451 2.87291,1.12451 0.87627,0 1.66491,-0.22736 2.36593,-0.68208" />
        <path
           id="path3207"
           style="font-variant:normal;font-weight:500;font-stretch:normal;font-size:44.8545px;font-family:GeosansLight;-inkscape-font-specification:GeosansLight;writing-mode:lr-tb;fill:#f9a602;fill-opacity:0.988235;fill-rule:nonzero;stroke:#f9a602;stroke-width:0.432282;stroke-miterlimit:4;stroke-dasharray:none;stroke-opacity:0.988235"
           d="m 457.02193,414.56255 c -10e-6,-1.11835 -0.38182,-2.02779 -1.14541,-2.7283 -0.7511,-0.70051 -1.70248,-1.05076 -2.85413,-1.05077 -1.1642,10e-6 -2.1281,0.37484 -2.8917,1.12451 -0.75109,0.73738 -1.12663,1.67754 -1.12663,2.82047 0,1.13065 0.3818,2.07082 1.14541,2.82048 0.75109,0.74967 1.70872,1.12451 2.87292,1.12451 0.4882,0 0.92633,-0.0614 1.3144,-0.18435 1.01396,-0.31953 1.76505,-0.93401 2.25326,-1.84345 l -0.69475,-0.31339 c -0.42563,0.67594 -0.90757,1.12451 -1.44585,1.34572 -0.42562,0.17206 -0.90131,0.25809 -1.42706,0.25809 -1.0265,0 -1.83392,-0.30725 -2.42227,-0.92173 -0.56332,-0.60219 -0.84497,-1.41946 -0.84497,-2.45179 h 7.26678 m -0.86376,-0.71895 h -6.29036 c 0.50072,-1.54849 1.55225,-2.32274 3.15458,-2.32274 0.76359,0 1.43957,0.20893 2.02793,0.62677 0.61338,0.43015 0.98267,0.99547 1.10785,1.69597" />
        <path
           id="path3209"
           style="font-variant:normal;font-weight:500;font-stretch:normal;font-size:44.8545px;font-family:GeosansLight;-inkscape-font-specification:GeosansLight;writing-mode:lr-tb;fill:#f9a602;fill-opacity:0.988235;fill-rule:nonzero;stroke:#f9a602;stroke-width:0.432282;stroke-miterlimit:4;stroke-dasharray:none;stroke-opacity:0.988235"
           d="m 462.88041,411.41025 c -0.31296,-0.2212 -0.59461,-0.37483 -0.84497,-0.46086 -0.25037,-0.086 -0.56958,-0.12903 -0.95764,-0.12904 -0.31296,10e-6 -0.60087,0.11676 -0.86375,0.35026 -0.26288,0.2335 -0.47569,0.49158 -0.63843,0.77424 v -1.03233 h -0.76986 v 7.61345 h 0.76986 v -5.01418 c 0,-0.19663 0.0375,-0.41171 0.11267,-0.6452 0.0876,-0.2335 0.20029,-0.44243 0.33799,-0.62679 0.13769,-0.19663 0.30043,-0.35639 0.4882,-0.47929 0.18777,-0.13518 0.38807,-0.20277 0.60087,-0.20278 0.25037,1e-5 0.48821,0.043 0.71354,0.12904 0.22532,0.086 0.43813,0.20279 0.63842,0.35026 l 0.4131,-0.62678" />
        <path
           id="path3211"
           style="font-variant:normal;font-weight:500;font-stretch:normal;font-size:44.8545px;font-family:GeosansLight;-inkscape-font-specification:GeosansLight;writing-mode:lr-tb;fill:#f9a602;fill-opacity:0.988235;fill-rule:nonzero;stroke:#f9a602;stroke-width:0.432282;stroke-miterlimit:4;stroke-dasharray:none;stroke-opacity:0.988235"
           d="m 470.10964,417.99137 v -0.94016 c -0.67598,0.58991 -1.46462,0.88486 -2.36593,0.88486 -0.95138,0 -1.73376,-0.30109 -2.34715,-0.9033 -0.6134,-0.60219 -0.92009,-1.37029 -0.92009,-2.30431 0,-0.9463 0.30669,-1.72055 0.92009,-2.32274 0.60087,-0.58989 1.38326,-0.88486 2.34715,-0.88486 0.42562,0 0.87627,0.0799 1.35196,0.23965 l 0.52576,0.27652 0.48821,0.31338 v -0.90329 c -0.58836,-0.44242 -1.377,-0.66363 -2.36593,-0.66364 -1.15167,10e-6 -2.10931,0.37484 -2.8729,1.12451 -0.76361,0.74967 -1.14542,1.68983 -1.14542,2.82047 0,1.13065 0.38181,2.07082 1.14542,2.82048 0.76359,0.74967 1.72123,1.12451 2.8729,1.12451 0.87627,0 1.6649,-0.22736 2.36593,-0.68208" />
        <path
           id="path3213"
           style="font-variant:normal;font-weight:500;font-stretch:normal;font-size:44.8545px;font-family:GeosansLight;-inkscape-font-specification:GeosansLight;writing-mode:lr-tb;fill:#f9a602;fill-opacity:0.988235;fill-rule:nonzero;stroke:#f9a602;stroke-width:0.432282;stroke-miterlimit:4;stroke-dasharray:none;stroke-opacity:0.988235"
           d="m 478.10873,418.54441 v -4.66393 c -10e-6,-2.05237 -1.02024,-3.07856 -3.06069,-3.07856 -1.07656,0 -1.84642,0.37483 -2.30959,1.12449 v -7.04197 h -0.76987 v 13.64153 h 0.76987 v -4.95888 c 0,-0.61448 0.23158,-1.10606 0.69475,-1.47476 0.45066,-0.36868 0.98893,-0.55303 1.61484,-0.55303 1.52721,0 2.29081,0.80498 2.29082,2.41491 v 4.5902 h 0.76987" />
        <path
           id="path3215"
           style="font-variant:normal;font-weight:500;font-stretch:normal;font-size:44.8545px;font-family:GeosansLight;-inkscape-font-specification:GeosansLight;writing-mode:lr-tb;fill:#f9a602;fill-opacity:0.988235;fill-rule:nonzero;stroke:#f9a602;stroke-width:0.432282;stroke-miterlimit:4;stroke-dasharray:none;stroke-opacity:0.988235"
           d="m 487.79777,414.56255 c 0,-1.11835 -0.38181,-2.02779 -1.1454,-2.7283 -0.7511,-0.70051 -1.70247,-1.05076 -2.85414,-1.05077 -1.16419,10e-6 -2.12809,0.37484 -2.8917,1.12451 -0.75108,0.73738 -1.12662,1.67754 -1.12662,2.82047 0,1.13065 0.3818,2.07082 1.14541,2.82048 0.75109,0.74967 1.70872,1.12451 2.87291,1.12451 0.4882,0 0.92633,-0.0614 1.3144,-0.18435 1.01397,-0.31953 1.76506,-0.93401 2.25327,-1.84345 l -0.69476,-0.31339 c -0.42563,0.67594 -0.90757,1.12451 -1.44584,1.34572 -0.42563,0.17206 -0.90131,0.25809 -1.42707,0.25809 -1.02649,0 -1.83391,-0.30725 -2.42226,-0.92173 -0.56331,-0.60219 -0.84497,-1.41946 -0.84497,-2.45179 h 7.26677 m -0.86375,-0.71895 h -6.29036 c 0.50072,-1.54849 1.55224,-2.32274 3.15457,-2.32274 0.7636,0 1.43958,0.20893 2.02794,0.62677 0.61338,0.43015 0.98266,0.99547 1.10785,1.69597" />
      </g>
    </g>
  </g>
</svg>
