<?xml version="1.0" encoding="UTF-8" standalone="no"?>
<svg
   xmlns:dc="http://purl.org/dc/elements/1.1/"
   xmlns:cc="http://creativecommons.org/ns#"
   xmlns:rdf="http://www.w3.org/1999/02/22-rdf-syntax-ns#"
   xmlns:svg="http://www.w3.org/2000/svg"
   xmlns="http://www.w3.org/2000/svg"
   xmlns:sodipodi="http://sodipodi.sourceforge.net/DTD/sodipodi-0.dtd"
   xmlns:inkscape="http://www.inkscape.org/namespaces/inkscape"
   width="43.894089"
   height="40.859379"
   id="svg3098"
   version="1.1"
   inkscape:version="1.0 (4035a4f, 2020-05-01)"
   sodipodi:docname="cnr_logo_white.svg"
   viewbox="0 0 701.10144 81.807785">
  <defs
     id="defs3100">
    <clipPath
       clipPathUnits="userSpaceOnUse"
       id="clipPath3028">
      <path
         inkscape:connector-curvature="0"
         d="M 0,595.275 H 841.89 V 0 H 0 Z"
         id="path3030" />
    </clipPath>
  </defs>
  <sodipodi:namedview
     id="base"
     pagecolor="#5168c5"
     bordercolor="#666666"
     borderopacity="1.0"
     inkscape:pageopacity="0"
     inkscape:pageshadow="2"
     inkscape:zoom="1.7618868"
     inkscape:cx="146.96453"
     inkscape:cy="4.1507587"
     inkscape:document-units="px"
     inkscape:current-layer="layer1"
     showgrid="false"
     fit-margin-top="0"
     fit-margin-left="0"
     fit-margin-right="0"
     fit-margin-bottom="0"
     inkscape:window-width="1626"
     inkscape:window-height="844"
     inkscape:window-x="1643"
     inkscape:window-y="25"
     inkscape:window-maximized="0"
     inkscape:document-rotation="0" />
  <metadata
     id="metadata3103">
    <rdf:RDF>
      <cc:Work
         rdf:about="">
        <dc:format>image/svg+xml</dc:format>
        <dc:type
           rdf:resource="http://purl.org/dc/dcmitype/StillImage" />
        <dc:title></dc:title>
      </cc:Work>
    </rdf:RDF>
  </metadata>
  <g
     inkscape:label="Livello 1"
     inkscape:groupmode="layer"
     id="layer1"
     transform="translate(-188.7141,-378.57153)">
    <path
       id="path3034"
       style="fill:#ffffff;fill-opacity:1;fill-rule:nonzero;stroke:none;stroke-width:1.25"
       d="m 209.15742,419.43091 c -11.28861,0 -20.44332,-9.14352 -20.44332,-20.43773 0,-11.27813 9.14353,-20.42165 20.43214,-20.42165 h 7.59864 v 4.23637 h -7.42885 c -8.94159,0 -16.34389,7.25487 -16.34389,16.18528 0,8.9416 7.25487,16.1797 16.18528,16.1797 h 17.07546 v 4.25803 z"
       inkscape:connector-curvature="0" />
    <path
       id="path3038"
       style="fill:#ffffff;fill-opacity:1;fill-rule:nonzero;stroke:none;stroke-width:1.25"
       d="m 216.74509,395.54867 h -7.54414 c -1.92709,0 -3.48245,1.56095 -3.48245,3.49363 v 13.10669 c -2.00884,-0.32211 -3.04644,-0.90065 -4.3342,-1.70838 l -0.044,-11.28372 c 0,-4.31813 3.47756,-7.81175 7.80617,-7.81175 h 7.59864 z"
       inkscape:connector-curvature="0" />
    <path
       id="path3042"
       style="fill:#ffffff;fill-opacity:1;fill-rule:nonzero;stroke:none;stroke-width:1.25"
       d="m 218.49742,384.90954 c 7.70205,0 13.97451,6.17394 14.11077,13.84874 v 20.6725 h -4.18677 v -20.72141 c 0,-5.44796 -4.42713,-9.56905 -9.87509,-9.56905 h -9.38878 c -5.43678,0 -9.92959,4.09384 -9.92959,9.5418 l 0.0384,10.04418 c -2.60974,-2.56013 -4.2203,-5.80291 -4.2203,-9.73883 0,-7.78381 6.31089,-14.094 14.10028,-14.094 z"
       inkscape:connector-curvature="0" />
  </g>
</svg>
