<?xml version="1.0" encoding="utf-8"?>
<!-- Generator: Adobe Illustrator 22.0.0, SVG Export Plug-In . SVG Version: 6.00 Build 0)  -->
<svg version="1.1" id="Layer_1" xmlns="http://www.w3.org/2000/svg" xmlns:xlink="http://www.w3.org/1999/xlink" x="0px" y="0px"
	 viewBox="0 0 259 259" style="enable-background:new 0 0 259 259;" xml:space="preserve">
<style type="text/css">
	.st0{fill:#E5E4E3;}
	.st1{opacity:0.1;}
	.st2{fill:none;}
	.st3{fill:#FFBE48;}
	.st4{fill:#637078;}
	.st5{fill:#F7D5BA;}
	.st6{fill:#FFE3C8;}
	.st7{fill:#3A4A52;}
	.st8{fill:#59D7C0;}
	.st9{fill:#F15E57;}
	.st10{fill:#45CCFC;}
	.st11{fill:#F3F3F3;}
	.st12{fill:#93E1FE;}
	.st13{fill:#F47F7A;}
	.st14{font-family:'Montserrat-Regular';}
	.st15{font-size:15px;}
</style>
<g>
	<g>
		<g>
			<g>
				<g>
					<g>
						<path class="st0" d="M245.77292,104.62723c0,0.40991-0.34009,0.75-0.75,0.75h-30.08008l-14.43994,14.43994
							c-0.14014,0.14001-0.33008,0.21997-0.53003,0.21997h-46.63989c-0.42017,0-0.75-0.33997-0.75-0.75
							c0-0.41992,0.32983-0.75,0.75-0.75h46.32983L214.103,104.0972c0.13989-0.14001,0.32983-0.21997,0.52979-0.21997h30.39014
							C245.43283,103.87723,245.77292,104.20718,245.77292,104.62723z"/>
					</g>
				</g>
				<g>
					<g>
						<path class="st0" d="M241.39279,77.89725c0,0.40991-0.33984,0.75-0.75,0.75h-30.83984l-20.07007,20.06995
							c-0.14014,0.14001-0.33008,0.21997-0.53003,0.21997h-30.01001c-0.40991,0-0.75-0.33997-0.75-0.75
							c0-0.42004,0.34009-0.75,0.75-0.75h29.69995l20.07007-20.06995c0.14014-0.14001,0.33008-0.21997,0.53003-0.21997h31.1499
							C241.05295,77.14725,241.39279,77.48709,241.39279,77.89725z"/>
					</g>
				</g>
				<g>
					<g>
						<path class="st0" d="M180.13876,61.9772c0,0.41003-0.33008,0.75-0.75,0.75h-37.50598v27.91003
							c0,0.40991-0.33984,0.75-0.75,0.75c-0.41992,0-0.75-0.34009-0.75-0.75V61.9772c0-0.41003,0.33008-0.75,0.75-0.75h38.25598
							C179.80869,61.2272,180.13876,61.56717,180.13876,61.9772z"/>
					</g>
				</g>
				<g>
					<g>
						<path class="st0" d="M246.91281,147.88724c0,0.40991-0.34009,0.75-0.75,0.75h-37.77002
							c-0.19995,0-0.38989-0.08008-0.53003-0.22009l-11.87988-11.88h-39.82007c-0.41992,0-0.75-0.32996-0.75-0.75
							c0-0.40991,0.33008-0.75,0.75-0.75h40.13013c0.19995,0,0.38989,0.08008,0.52979,0.21997l11.88013,11.88013h37.45996
							C246.57272,147.13724,246.91281,147.46719,246.91281,147.88724z"/>
					</g>
				</g>
				<g>
					<g>
						<path class="st0" d="M193.55295,156.62723c0,0.41992-0.33008,0.75-0.75,0.75h-32.3501c-0.40991,0-0.75-0.33008-0.75-0.75
							c0-0.41003,0.34009-0.75,0.75-0.75h32.3501C193.22287,155.87723,193.55295,156.21719,193.55295,156.62723z"/>
					</g>
				</g>
			</g>
			<g>
				<g>
					<g>
						<path class="st0" d="M103.21287,119.28714c0,0.41003-0.33008,0.75-0.75,0.75h-46.6499
							c-0.19019,0-0.39014-0.07996-0.53003-0.21997l-14.44019-14.43994H10.77292c-0.41992,0-0.75-0.34009-0.75-0.75
							c0-0.42004,0.33008-0.75,0.75-0.75h30.37988c0.2002,0,0.39014,0.07996,0.53003,0.21997l14.44995,14.43994h46.33008
							C102.88279,118.53714,103.21287,118.86722,103.21287,119.28714z"/>
					</g>
				</g>
				<g>
					<g>
						<path class="st0" d="M97.34275,98.18716c0,0.41003-0.32983,0.75-0.75,0.75h-30c-0.19995,0-0.38989-0.07996-0.52979-0.21997
							L45.9929,78.64725H15.15281c-0.41992,0-0.75-0.34009-0.75-0.75c0-0.41016,0.33008-0.75,0.75-0.75h31.15015
							c0.19995,0,0.38989,0.07996,0.53003,0.21997l20.06982,20.06995h29.68994
							C97.01292,97.43716,97.34275,97.76712,97.34275,98.18716z"/>
					</g>
				</g>
				<g>
					<g>
						<path class="st0" d="M115.41282,51.9772v38.66003c0,0.40991-0.32983,0.75-0.75,0.75c-0.40991,0-0.75-0.34009-0.75-0.75
							V52.7272H72.07273c-0.40991,0-0.75-0.33997-0.75-0.75s0.34009-0.75,0.75-0.75h42.59009
							C115.08298,51.2272,115.41282,51.56717,115.41282,51.9772z"/>
					</g>
				</g>
				<g>
					<g>
						<path class="st0" d="M100.38279,135.78714c0,0.42004-0.33984,0.75-0.75,0.75H59.80296l-11.87012,11.88
							c-0.13989,0.14001-0.32983,0.22009-0.53003,0.22009H9.63279c-0.41992,0-0.75-0.34009-0.75-0.75
							c0-0.42004,0.33008-0.75,0.75-0.75h37.45996l11.87012-11.88013c0.14014-0.13989,0.33008-0.21997,0.53003-0.21997h40.13989
							C100.04295,135.03714,100.38279,135.37723,100.38279,135.78714z"/>
					</g>
				</g>
				<g>
					<g>
						<path class="st0" d="M96.09275,156.62723c0,0.41992-0.33984,0.75-0.75,0.75H62.98289c-0.41016,0-0.75-0.33008-0.75-0.75
							c0-0.41003,0.33984-0.75,0.75-0.75h32.35986C95.75291,155.87723,96.09275,156.21719,96.09275,156.62723z"/>
					</g>
				</g>
			</g>
		</g>
		<g>
			<g>
				<g>
					<g>
						<g class="st1">
							<path d="M96.09275,156.62723c0,0.41992-0.33984,0.75-0.75,0.75h-2.15991v-1.5h2.15991
								C95.75291,155.87723,96.09275,156.21719,96.09275,156.62723z"/>
						</g>
						<g class="st1">
							<path d="M96.59275,98.93716h-3.40991v-1.5h3.40991c0.42017,0,0.75,0.32996,0.75,0.75
								C97.34275,98.5972,97.01292,98.93716,96.59275,98.93716z"/>
						</g>
						<g class="st1">
							<path d="M100.38279,135.78714c0,0.42004-0.33984,0.75-0.75,0.75h-6.44995v-1.5h6.44995
								C100.04295,135.03714,100.38279,135.37723,100.38279,135.78714z"/>
						</g>
						<g class="st1">
							<path d="M103.21287,119.28714c0,0.41003-0.33008,0.75-0.75,0.75h-9.28003v-1.5h9.28003
								C102.88279,118.53714,103.21287,118.86722,103.21287,119.28714z"/>
						</g>
						<g class="st1">
							<path d="M113.91282,85.07718c0.48999-0.02002,0.98999-0.04004,1.5-0.06006v5.62012c0,0.40991-0.32983,0.75-0.75,0.75
								c-0.40991,0-0.75-0.34009-0.75-0.75V85.07718z"/>
						</g>
						<g class="st1">
							<path d="M140.38278,85.01712c0.51001,0.02002,1,0.04004,1.5,0.06006v5.56006c0,0.40991-0.33984,0.75-0.75,0.75
								c-0.41992,0-0.75-0.34009-0.75-0.75V85.01712z"/>
						</g>
						<g class="st1">
							<path d="M162.61276,97.43716v1.5h-3.41992c-0.40991,0-0.75-0.33997-0.75-0.75c0-0.42004,0.34009-0.75,0.75-0.75H162.61276z"
								/>
						</g>
						<g class="st1">
							<path d="M153.33298,118.53714h9.27979v1.5h-9.27979c-0.42017,0-0.75-0.33997-0.75-0.75
								C152.58298,118.86722,152.91281,118.53714,153.33298,118.53714z"/>
						</g>
						<g class="st1">
							<path d="M156.16281,135.03714h6.44995v1.5h-6.44995c-0.41992,0-0.75-0.32996-0.75-0.75
								C155.41281,135.37723,155.74289,135.03714,156.16281,135.03714z"/>
						</g>
						<g class="st1">
							<path d="M160.45285,155.87723h2.15991v1.5h-2.15991c-0.40991,0-0.75-0.33008-0.75-0.75
								C159.70285,156.21719,160.04294,155.87723,160.45285,155.87723z"/>
						</g>
						<g>
							<path class="st2" d="M157.82272,106.66714v1.78003c2.11011,0.38,3.29004,0.81995,3.29004,1.28003v15.10999
								c0,0.89001-1.20996,1.6499-3.29004,2.30005v1.11987c2.11011,0.39014,3.29004,0.82007,3.29004,1.28003v15.11011
								c0,0.88989-1.20996,1.65991-3.29004,2.30994v1.10999c2.11011,0.38,3.29004,0.82007,3.29004,1.28003v15.10999
								c0,6.58997-66.42992,6.58997-66.42992,0V149.3472c0-0.56006,1.75-1.08008,4.79004-1.53003v-0.45996
								c-3-0.71997-4.79004-1.63-4.79004-2.70996v-15.11011c0-0.55994,1.75-1.07996,4.79004-1.53003v-0.45996
								c-3-0.72998-4.79004-1.63-4.79004-2.70996V109.7272c0-0.56006,1.75-1.07996,4.79004-1.53003v-1.12
								c-3-0.72998-4.79004-1.64001-4.79004-2.71997V89.2471c0-1.62988,14.87012-2.93994,33.21997-2.93994
								c18.34008,0,33.20995,1.31006,33.20995,2.93994v15.11011C161.11276,105.2471,159.9028,106.01712,157.82272,106.66714z"/>
						</g>
					</g>
				</g>
			</g>
		</g>
		<g>
			<g>
				<g>
					<path class="st3" d="M256.21671,146.59943c0,1.98477-0.82942,3.77524-2.15915,5.03906
						c-0.00659,0.00659-0.01314,0.01318-0.01973,0.01648c-1.24739,1.18822-2.9359,1.91559-4.79218,1.91559
						c-1.85637,0-3.5481-0.72737-4.79553-1.91888c-0.00658-0.0033-0.01317-0.00989-0.01976-0.01639
						c-1.32968-1.26392-2.15581-3.05447-2.15581-5.03586c0-3.85078,3.12019-6.97107,6.9711-6.97107
						C253.09651,139.62836,256.21671,142.74864,256.21671,146.59943z"/>
				</g>
			</g>
			<g>
				<g>
					<g>
						<g>
							<path class="st4" d="M254.03783,151.65497c-1.24739,1.18822-2.9359,1.91559-4.79218,1.91559
								c-1.85637,0-3.5481-0.72737-4.79553-1.91888c0.29294-0.18434,0.61879-0.32254,0.97093-0.41142
								c0.47728-0.11844,0.90184-0.33572,1.26721-0.62862c0.04604-0.02635,0.08887-0.06259,0.12833-0.09875
								c0.03294-0.02635,0.06256-0.05263,0.09216-0.08229c0.01648-0.02306,0.03624-0.03952,0.05597-0.05922
								c0.181-0.17773,0.33897-0.36867,0.47069-0.57599c0.35216-0.53323,0.54633-1.17503,0.54633-1.84648v-0.51009h2.52449v0.51009
								c0,0.67145,0.19417,1.31325,0.54637,1.84648c0.12833,0.20732,0.2896,0.40155,0.46735,0.58258
								c0.05267,0.04605,0.09875,0.09216,0.15138,0.13492c0.03954,0.03616,0.07899,0.0724,0.12512,0.10864
								c0.3653,0.283,0.79648,0.50029,1.26712,0.61873C253.41905,151.32913,253.74489,151.46733,254.03783,151.65497z"/>
						</g>
					</g>
				</g>
				<g>
					<g>
						<g>
							<path class="st5" d="M251.65791,150.50185c-0.51982,0.78215-1.40787,1.29713-2.41382,1.29713
								c-1.00838,0-1.89641-0.5174-2.41383-1.29955c0.02646-0.02409,0.05054-0.04575,0.07701-0.0722
								c0.20216-0.19014,0.38025-0.40189,0.53186-0.63535c0.34415-0.53186,0.54149-1.16962,0.54149-1.84106v-0.515h2.52454v0.515
								c0,0.67145,0.19734,1.3092,0.54388,1.84106C251.2175,150.05418,251.42207,150.29485,251.65791,150.50185z"/>
						</g>
					</g>
				</g>
				<g>
					<g>
						<g>
							<path class="st6" d="M252.12593,146.53972c0,1.92769-1.29007,4.07677-2.88133,4.07677
								c-1.59306,0-2.88316-2.14908-2.88316-4.07677c0-1.9277,1.2901-2.90347,2.88316-2.90347
								C250.83586,143.63625,252.12593,144.61201,252.12593,146.53972z"/>
						</g>
					</g>
				</g>
				<g>
					<g>
						<g>
							<path class="st7" d="M252.12178,146.97441c-0.06126,0.14801-0.12782,0.29291-0.20705,0.47322
								c-0.02747-0.3992-0.02429-0.76195-0.08133-1.11528c-0.18698-1.16116-0.77113-1.71568-1.97429-1.91374
								c-0.20177-0.0323-0.40352-0.0667-0.60529-0.1011c-0.40457-0.06879-0.80492-0.14799-1.09541-0.48572
								c-0.07288,0.13968-0.13626,0.26581-0.20493,0.38983c-0.20493,0.36482-0.48485,0.66084-0.84401,0.8839
								c-0.13203,0.08235-0.26408,0.16678-0.38345,0.26581c-0.17218,0.14174-0.24928,0.31583-0.20598,0.55035
								c0.08345,0.4482,0.12543,1.37454,0.10852,1.38289c-0.06128-0.10216-0.35992-1.17651-0.42119-1.61325
								c-0.10564-0.74007-0.08134-1.48219,0.1183-2.20871c0.18803-0.68689,0.51233-1.2706,1.3257-1.49782
								c-0.14789-0.04587-0.24507-0.0761-0.3602-0.11258c0.23662-0.09381,0.42886,0.03023,0.619,0.09901
								c0.06865-0.17511,0.11092-0.345,0.19859-0.48676c0.08345-0.13551,0.21443-0.24184,0.34647-0.33772
								c-0.09401,0.19492-0.27464,0.60143-0.25986,0.60976c0.18063-0.26683,0.42043-0.47737,0.76691-0.5222
								c-0.14684,0.13237-0.41302,0.39713-0.41302,0.41382c0.19225-0.03128,0.39507-0.07298,0.58838-0.09174
								c0.85562-0.08443,1.65526,0.08443,2.36511,0.57327c0.77113,0.53056,1.12393,1.29353,1.17358,2.20142
								C252.72705,145.25874,252.47037,146.12701,252.12178,146.97441z"/>
						</g>
					</g>
				</g>
				<g>
					<g>
						<g>
							<path class="st6" d="M252.64537,146.91849c-0.10123,0.55185-0.37668,0.9631-0.61319,0.91972
								c-0.23651-0.04337-0.3481-0.5256-0.24689-1.07747c0.10123-0.55188,0.37668-0.96313,0.61319-0.91975
								S252.74658,146.36661,252.64537,146.91849z"/>
						</g>
					</g>
				</g>
				<g>
					<g>
						<g>
							<path class="st6" d="M245.84201,146.91849c0.10121,0.55185,0.37668,0.9631,0.61317,0.91972
								c0.23651-0.04337,0.3481-0.5256,0.24689-1.07747c-0.10121-0.55188-0.37668-0.96313-0.61319-0.91975
								S245.74078,146.36661,245.84201,146.91849z"/>
						</g>
					</g>
				</g>
				<g>
					<g>
						<g>
							<g>
								<path class="st7" d="M251.66994,150.51385c-0.05052-0.04332-0.09866-0.08904-0.14679-0.13716
									c-0.00482,0.00723-0.00963,0.01683-0.01445,0.02406c-0.50778,0.76291-1.35251,1.21773-2.2646,1.21773
									c-0.91212,0-1.75923-0.45482-2.26222-1.21773c-0.00722-0.00963-0.01202-0.01924-0.01926-0.02888
									c-0.01685,0.01926-0.03609,0.0385-0.05534,0.05536c-0.0313,0.03128-0.06017,0.05775-0.09146,0.08662
									c-0.04091,0.03612-0.08182,0.06981-0.12514,0.10109c0.57277,0.85435,1.52579,1.36453,2.55342,1.36453
									c1.02521,0,1.97823-0.5078,2.55341-1.36212C251.75418,150.58366,251.71086,150.54997,251.66994,150.51385z"/>
							</g>
						</g>
					</g>
				</g>
			</g>
		</g>
		<g>
			<g>
				<g>
					<path class="st3" d="M188.96713,61.21723c0,2.35521-0.98422,4.47986-2.56212,5.97957
						c-0.00783,0.00781-0.01559,0.01563-0.02342,0.01955c-1.48019,1.40998-3.48384,2.27311-5.68658,2.27311
						c-2.20284,0-4.2103-0.86313-5.69055-2.27702c-0.00783-0.00391-0.01564-0.01173-0.02345-0.01945
						c-1.57785-1.4998-2.55818-3.62455-2.55818-5.97575c0-4.56949,3.70255-8.27213,8.27219-8.27213
						C185.26459,52.9451,188.96713,56.64774,188.96713,61.21723z"/>
				</g>
			</g>
			<g>
				<g>
					<g>
						<g>
							<path class="st4" d="M186.38159,67.21635c-1.48019,1.40998-3.48384,2.27311-5.68658,2.27311
								c-2.20284,0-4.2103-0.86313-5.69055-2.27702c0.34761-0.21873,0.73425-0.38274,1.15215-0.4882
								c0.56635-0.14055,1.07014-0.39838,1.50371-0.74594c0.05464-0.03128,0.10547-0.07428,0.15228-0.11719
								c0.03909-0.03128,0.07423-0.06246,0.10936-0.09764c0.01955-0.02737,0.04301-0.04691,0.06642-0.07027
								c0.21478-0.21092,0.40224-0.43748,0.55853-0.68349c0.41788-0.63276,0.6483-1.39434,0.6483-2.1911v-0.6053h2.99564v0.6053
								c0,0.79677,0.23042,1.55835,0.64836,2.1911c0.15227,0.24601,0.34364,0.47648,0.55457,0.69131
								c0.0625,0.05464,0.11719,0.10938,0.17964,0.1601c0.04692,0.04291,0.09373,0.08591,0.14847,0.12891
								c0.43347,0.33583,0.94513,0.59367,1.50362,0.73421C185.64734,66.82969,186.034,66.9937,186.38159,67.21635z"/>
						</g>
					</g>
				</g>
				<g>
					<g>
						<g>
							<path class="st5" d="M183.5575,65.84801c-0.61684,0.92812-1.67062,1.53923-2.86433,1.53923
								c-1.19658,0-2.25035-0.61397-2.86435-1.54209c0.0314-0.02859,0.05997-0.05428,0.09138-0.08569
								c0.23988-0.22562,0.45122-0.4769,0.63113-0.75393c0.40837-0.63112,0.64255-1.38791,0.64255-2.18468v-0.61111h2.99571v0.61111
								c0,0.79677,0.23418,1.55356,0.6454,2.18468C183.03488,65.3168,183.27763,65.60238,183.5575,65.84801z"/>
						</g>
					</g>
				</g>
				<g>
					<g>
						<g>
							<path class="st6" d="M184.11287,61.14638c0,2.28749-1.53087,4.83767-3.4191,4.83767
								c-1.8904,0-3.42128-2.55018-3.42128-4.83767s1.53088-3.44537,3.42128-3.44537
								C182.582,57.70101,184.11287,58.85889,184.11287,61.14638z"/>
						</g>
					</g>
				</g>
				<g>
					<g>
						<g>
							<path class="st7" d="M184.10794,61.66221c-0.07271,0.17564-0.15167,0.34757-0.2457,0.56154
								c-0.03259-0.47371-0.02882-0.90416-0.09651-1.32344c-0.22186-1.37788-0.91504-2.03588-2.34276-2.27091
								c-0.23943-0.03834-0.47884-0.07915-0.71825-0.11997c-0.48009-0.08162-0.95515-0.17563-1.29987-0.57637
								c-0.08649,0.16574-0.1617,0.31541-0.24318,0.46259c-0.24318,0.43291-0.57535,0.78417-1.00153,1.04887
								c-0.15669,0.09772-0.31337,0.1979-0.45502,0.31541c-0.20432,0.1682-0.29582,0.37477-0.24443,0.65307
								c0.09903,0.53185,0.14883,1.63108,0.12877,1.64099c-0.07271-0.12121-0.42709-1.39609-0.4998-1.91434
								c-0.12535-0.87818-0.09651-1.75883,0.1404-2.62094c0.22311-0.81509,0.60793-1.50774,1.57312-1.77737
								c-0.17549-0.05443-0.29082-0.09029-0.42744-0.13359c0.28079-0.11131,0.50893,0.03587,0.73454,0.1175
								c0.08148-0.20779,0.13162-0.4094,0.23566-0.57761c0.09903-0.1608,0.25446-0.28696,0.41115-0.40075
								c-0.11156,0.23129-0.32591,0.71368-0.30836,0.72357c0.21434-0.31663,0.49889-0.56648,0.91003-0.61967
								c-0.17424,0.15709-0.49011,0.47124-0.49011,0.49105c0.22813-0.03711,0.4688-0.08659,0.6982-0.10886
								c1.01532-0.10018,1.9642,0.1002,2.80655,0.68028c0.91504,0.62958,1.33369,1.53496,1.39262,2.61229
								C184.82617,59.62633,184.52158,60.65665,184.10794,61.66221z"/>
						</g>
					</g>
				</g>
				<g>
					<g>
						<g>
							<path class="st6" d="M184.72925,61.59584c-0.12012,0.65486-0.44698,1.14287-0.72763,1.09139
								c-0.28065-0.05147-0.41307-0.62371-0.29297-1.27858c0.12012-0.65488,0.44699-1.14289,0.72763-1.09141
								C184.71693,60.36872,184.84935,60.94096,184.72925,61.59584z"/>
						</g>
					</g>
				</g>
				<g>
					<g>
						<g>
							<path class="st6" d="M176.65611,61.59584c0.1201,0.65486,0.44698,1.14287,0.72763,1.09139
								c0.28065-0.05147,0.41307-0.62371,0.29295-1.27858c-0.1201-0.65488-0.44698-1.14289-0.72763-1.09141
								C176.66841,60.36872,176.53601,60.94096,176.65611,61.59584z"/>
						</g>
					</g>
				</g>
				<g>
					<g>
						<g>
							<g>
								<path class="st7" d="M183.57178,65.86226c-0.05997-0.05141-0.11708-0.10566-0.17421-0.16276
									c-0.00571,0.00858-0.01141,0.01997-0.01714,0.02855c-0.60255,0.90529-1.60493,1.445-2.68727,1.445
									c-1.08235,0-2.08757-0.53971-2.68443-1.445c-0.00856-0.01144-0.01428-0.02283-0.02286-0.03427
									c-0.01999,0.02283-0.04283,0.04567-0.06567,0.06568c-0.03712,0.03712-0.0714,0.06853-0.10852,0.1028
									c-0.04854,0.04285-0.09709,0.08283-0.14851,0.11996c0.67969,1.01382,1.81058,1.6192,3.03,1.6192
									c1.21657,0,2.34744-0.60256,3.02997-1.61634C183.67174,65.94509,183.62033,65.90511,183.57178,65.86226z"/>
							</g>
						</g>
					</g>
				</g>
			</g>
		</g>
		<g>
			<g>
				<g>
					<path class="st4" d="M79.72894,51.97817c0,1.93681-0.66634,3.71815-1.77689,5.12636
						c-0.55083,0.69741-1.20828,1.30155-1.94566,1.78574c-0.03557,0.02668-0.07114,0.04886-0.11105,0.07109
						c-0.38653,0.24879-0.79073,0.46646-1.21717,0.64855c-0.99506,0.4176-2.08344,0.64855-3.22952,0.64855
						c-1.15058,0-2.2478-0.2354-3.24286-0.65744c-0.422-0.17765-0.82186-0.39087-1.20383-0.63966
						c-0.04002-0.02224-0.07999-0.04886-0.11995-0.07549c-0.73743-0.48869-1.39043-1.08838-1.93687-1.78135
						c-1.11056-1.40821-1.77689-3.18955-1.77689-5.12636c0-4.57109,3.70487-8.28035,8.2804-8.28035
						C76.01968,43.69782,79.72894,47.40708,79.72894,51.97817z"/>
				</g>
			</g>
			<g>
				<g>
					<g>
						<path class="st7" d="M74.96887,48.73127v8.65572h-6.9886v-8.65572c0-1.93168,1.56583-3.49117,3.49109-3.49117
							c0.96905,0,1.84182,0.39146,2.4708,1.02036C74.57749,46.88937,74.96887,47.76221,74.96887,48.73127z"/>
					</g>
				</g>
				<g>
					<g>
						<path class="st6" d="M74.67817,55.43869v4.17122c-0.99506,0.4176-2.08344,0.64855-3.22952,0.64855
							c-1.15058,0-2.2478-0.2354-3.24286-0.65744v-4.16233h0.00444c0.8307-0.25768,1.26603-0.76411,1.48814-1.29715
							c0.02663-0.0622,0.04886-0.1244,0.07109-0.18659c0.01334-0.03552,0.02223-0.07104,0.03107-0.10661
							c0.01778-0.04886,0.03107-0.09772,0.03996-0.14663c0.01778-0.0577,0.02668-0.11106,0.03558-0.16875
							c0.00889-0.04891,0.01778-0.09327,0.02223-0.13329c0.05769-0.37758,0.04436-0.71519,0.03991-0.90623h3.0163
							c-0.00444,0.16442-0.01778,0.43533,0.01779,0.74632c0.01334,0.14213,0.03557,0.2932,0.07548,0.44867c0,0,0,0.00445,0,0.00889
							c0.0089,0.03552,0.01779,0.07554,0.03113,0.11106c0.0089,0.04441,0.02223,0.08882,0.04002,0.13768
							c0.02218,0.0622,0.04436,0.1244,0.07103,0.1866C73.40764,54.66574,73.84742,55.18101,74.67817,55.43869z"/>
					</g>
				</g>
				<g class="st1">
					<g>
						<path d="M73.19121,54.13476c-0.49408,0.35942-1.09737,0.57117-1.75197,0.57117c-0.64818,0-1.25138-0.21175-1.73912-0.56475
							c0.27591-0.64817,0.24387-1.33489,0.23744-1.64935h3.01628C72.94742,52.80629,72.9153,53.49301,73.19121,54.13476z"/>
					</g>
				</g>
				<g>
					<g>
						<path class="st6" d="M77.95205,57.10453c-0.55083,0.69741-1.20828,1.30155-1.94566,1.78574
							c-0.03557,0.02668-0.07114,0.04886-0.11105,0.07109l-0.04002-3.53601c0,0,1.87906,0.66634,2.0612,1.51032
							C77.92987,56.98903,77.93871,57.04673,77.95205,57.10453z"/>
					</g>
				</g>
				<g>
					<g>
						<path class="st6" d="M67.04192,55.42535l-0.03996,3.53601c-0.04002-0.02224-0.07999-0.04886-0.11995-0.07549
							c-0.73743-0.48869-1.39043-1.08838-1.93687-1.78135c0.01334-0.0578,0.02223-0.1155,0.03558-0.16886
							c0.1777-0.81736,1.9457-1.47035,2.05676-1.50587C67.04192,55.42535,67.04192,55.42535,67.04192,55.42535z"/>
					</g>
				</g>
				<g>
					<g>
						<path class="st8" d="M76.00639,58.89027c-0.03557,0.02668-0.07114,0.04886-0.11105,0.07109
							c-0.38653,0.24879-0.79073,0.46646-1.21717,0.64855c-0.99506,0.4176-2.08344,0.64855-3.22952,0.64855
							c-1.15058,0-2.2478-0.2354-3.24286-0.65744c-0.422-0.17765-0.82186-0.39087-1.20383-0.63966
							c-0.04002-0.02224-0.07999-0.04886-0.11995-0.07549c0.02668-1.66584,0.14658-3.34058,0.15547-3.45608
							c0-0.00445,0-0.00445,0-0.00445h1.17275v0.01334c0.03552,0.78623,0.1821,1.43484,0.44423,1.9501
							c0.51081,1.03508,1.46152,1.537,2.78974,1.57702c1.32378-0.04002,2.27437-0.54194,2.78529-1.57702
							c0.26202-0.51526,0.4131-1.16386,0.44867-1.9501v-0.01334h1.17715C75.85532,55.42535,75.97971,57.16223,76.00639,58.89027z"/>
					</g>
				</g>
				<g>
					<g>
						<path class="st6" d="M74.1731,49.19327v2.30391c0,1.50168-1.22569,2.72744-2.73386,2.72744
							c-1.50168,0-2.72745-1.22577-2.72745-2.72744v-4.36586c0.37869,0.93051,1.3092,1.47152,2.56059,1.92721
							C72.30566,49.43071,73.34522,49.45633,74.1731,49.19327z"/>
					</g>
				</g>
				<g>
					<g>
						<g>
							<path class="st6" d="M74.65466,50.61196c-0.05431,0.5304-0.28237,0.93813-0.50151,0.91569
								c-0.22477-0.02301-0.35984-0.46792-0.30553-0.99832c0.05431-0.53033,0.27732-0.9444,0.50209-0.92139
								C74.56886,49.63038,74.70896,50.08163,74.65466,50.61196z"/>
						</g>
					</g>
					<g>
						<g>
							<path class="st6" d="M68.23024,50.61196c0.05431,0.5304,0.28236,0.93813,0.50151,0.91569
								c0.22477-0.02301,0.35984-0.46792,0.30553-0.99832c-0.05431-0.53033-0.27732-0.9444-0.5021-0.92139
								C68.31605,49.63038,68.17594,50.08163,68.23024,50.61196z"/>
						</g>
					</g>
				</g>
			</g>
		</g>
		<g>
			<g>
				<g>
					<path class="st4" d="M18.06069,146.40034c0,1.93681-0.66634,3.71815-1.7769,5.12636
						c-0.55083,0.69742-1.20828,1.30156-1.94565,1.78574c-0.03557,0.02669-0.07115,0.04886-0.11106,0.07109
						c-0.38653,0.24879-0.79073,0.46646-1.21717,0.64856c-0.99506,0.4176-2.08344,0.64854-3.22952,0.64854
						c-1.15058,0-2.2478-0.2354-3.24286-0.65744c-0.42199-0.17764-0.82186-0.39087-1.20383-0.63966
						c-0.04002-0.02223-0.07998-0.04886-0.11995-0.07549c-0.73743-0.48868-1.39042-1.08838-1.93687-1.78134
						C2.16634,150.1185,1.5,148.33716,1.5,146.40034c0-4.57109,3.70487-8.28035,8.2804-8.28035
						C14.35143,138.12,18.06069,141.82925,18.06069,146.40034z"/>
				</g>
			</g>
			<g>
				<g>
					<g>
						<path class="st7" d="M13.30062,143.15344v8.65572h-6.9886v-8.65572c0-1.93167,1.56584-3.49117,3.49109-3.49117
							c0.96905,0,1.84182,0.39145,2.47081,1.02036C12.90924,141.31154,13.30062,142.18439,13.30062,143.15344z"/>
					</g>
				</g>
				<g>
					<g>
						<path class="st6" d="M13.00992,149.86087v4.17122c-0.99506,0.4176-2.08344,0.64854-3.22952,0.64854
							c-1.15058,0-2.2478-0.2354-3.24286-0.65744v-4.16232h0.00445c0.8307-0.25769,1.26603-0.76411,1.48814-1.29716
							c0.02663-0.06219,0.04886-0.12439,0.07109-0.18658c0.01334-0.03552,0.02223-0.07104,0.03107-0.10661
							c0.01779-0.04886,0.03107-0.09772,0.03996-0.14662c0.01779-0.05771,0.02668-0.11107,0.03557-0.16876
							c0.00889-0.0489,0.01779-0.09326,0.02223-0.13329c0.0577-0.37758,0.04436-0.71519,0.03991-0.90623h3.0163
							c-0.00445,0.16441-0.01779,0.43533,0.01779,0.74632c0.01334,0.14212,0.03557,0.2932,0.07548,0.44867c0,0,0,0.00444,0,0.0089
							c0.00889,0.03552,0.01779,0.07553,0.03113,0.11105c0.00889,0.04442,0.02223,0.08882,0.04002,0.13768
							c0.02218,0.06219,0.04436,0.12439,0.07104,0.1866C11.73939,149.08792,12.17917,149.60318,13.00992,149.86087z"/>
					</g>
				</g>
				<g class="st1">
					<g>
						<path d="M11.52296,148.55695c-0.49408,0.35941-1.09737,0.57117-1.75197,0.57117c-0.64818,0-1.25138-0.21176-1.73912-0.56474
							c0.27591-0.64818,0.24387-1.3349,0.23744-1.64935h3.01628C11.27917,147.22847,11.24705,147.91519,11.52296,148.55695z"/>
					</g>
				</g>
				<g>
					<g>
						<path class="st6" d="M16.2838,151.5267c-0.55083,0.69742-1.20828,1.30156-1.94565,1.78574
							c-0.03557,0.02669-0.07115,0.04886-0.11106,0.07109l-0.04002-3.536c0,0,1.87906,0.66634,2.06121,1.51031
							C16.26162,151.41121,16.27046,151.4689,16.2838,151.5267z"/>
					</g>
				</g>
				<g>
					<g>
						<path class="st6" d="M5.37368,149.84753l-0.03996,3.536c-0.04002-0.02223-0.07998-0.04886-0.11995-0.07549
							c-0.73743-0.48868-1.39042-1.08838-1.93687-1.78134c0.01334-0.0578,0.02223-0.11549,0.03557-0.16885
							c0.1777-0.81735,1.9457-1.47035,2.05676-1.50587C5.37368,149.84753,5.37368,149.84753,5.37368,149.84753z"/>
					</g>
				</g>
				<g>
					<g>
						<path class="st8" d="M14.33815,153.31244c-0.03557,0.02669-0.07115,0.04886-0.11106,0.07109
							c-0.38653,0.24879-0.79073,0.46646-1.21717,0.64856c-0.99506,0.4176-2.08344,0.64854-3.22952,0.64854
							c-1.15058,0-2.2478-0.2354-3.24286-0.65744c-0.42199-0.17764-0.82186-0.39087-1.20383-0.63966
							c-0.04002-0.02223-0.07998-0.04886-0.11995-0.07549c0.02668-1.66583,0.14657-3.34056,0.15547-3.45607
							c0-0.00444,0-0.00444,0-0.00444h1.17276v0.01334c0.03552,0.78622,0.18209,1.43483,0.44422,1.95009
							c0.51081,1.03508,1.46151,1.537,2.78974,1.57703c1.32378-0.04002,2.27437-0.54195,2.7853-1.57703
							c0.26202-0.51526,0.4131-1.16386,0.44867-1.95009v-0.01334h1.17715C14.18707,149.84753,14.31147,151.58441,14.33815,153.31244
							z"/>
					</g>
				</g>
				<g>
					<g>
						<path class="st6" d="M12.50486,143.61545v2.30391c0,1.50166-1.22569,2.72743-2.73387,2.72743
							c-1.50168,0-2.72744-1.22577-2.72744-2.72743v-4.36588c0.37869,0.93051,1.3092,1.47153,2.56058,1.92722
							C10.63742,143.85289,11.67697,143.87851,12.50486,143.61545z"/>
					</g>
				</g>
				<g>
					<g>
						<g>
							<path class="st6" d="M12.98641,145.03413c-0.05431,0.53041-0.28237,0.93813-0.50151,0.9157
								c-0.22477-0.02301-0.35984-0.46793-0.30553-0.99832c0.0543-0.53033,0.27732-0.94441,0.50209-0.92139
								C12.9006,144.05255,13.04071,144.5038,12.98641,145.03413z"/>
						</g>
					</g>
					<g>
						<g>
							<path class="st6" d="M6.56199,145.03413c0.05431,0.53041,0.28237,0.93813,0.50151,0.9157
								c0.22477-0.02301,0.35984-0.46793,0.30553-0.99832c-0.0543-0.53033-0.27732-0.94441-0.50209-0.92139
								C6.6478,144.05255,6.50769,144.5038,6.56199,145.03413z"/>
						</g>
					</g>
				</g>
			</g>
		</g>
		<g>
			<g>
				<g>
					<path class="st3" d="M70.75976,155.79239c0.03098,1.93655-0.60679,3.72833-1.69469,5.15411
						c-0.53961,0.70613-1.18731,1.32071-1.91684,1.81664c-0.03514,0.02724-0.07036,0.04999-0.10991,0.07285
						c-0.3825,0.25494-0.78317,0.47905-1.20664,0.66794c-0.98825,0.43346-2.0728,0.68179-3.21873,0.70012
						c-1.15043,0.0184-2.25128-0.19942-3.25296-0.6055c-0.42478-0.17088-0.828-0.37767-1.21391-0.62033
						c-0.04037-0.02158-0.08076-0.04756-0.12114-0.07355c-0.74515-0.47684-1.40765-1.06601-1.9651-1.75014
						c-1.13294-1.39027-1.82768-3.16074-1.85865-5.09729c-0.0731-4.57051,3.57197-8.33855,8.14692-8.41171
						C66.91855,147.57242,70.68665,151.22188,70.75976,155.79239z"/>
				</g>
			</g>
			<g>
				<g>
					<g>
						<path class="st7" d="M65.94837,152.62202l0.13843,8.6546l-6.98771,0.11177l-0.13843-8.65462
							c-0.03089-1.93143,1.5098-3.51576,3.43481-3.54654c0.96893-0.0155,1.84785,0.36195,2.48681,0.98071
							C65.52758,150.78662,65.93287,151.65309,65.94837,152.62202z"/>
					</g>
				</g>
				<g>
					<g>
						<path class="st6" d="M65.76498,159.33324l0.0667,4.17068c-0.98825,0.43346-2.0728,0.68179-3.21873,0.70012
							c-1.15043,0.0184-2.25128-0.19942-3.25296-0.6055l-0.06657-4.16179l0.00445-0.00008
							c0.82647-0.27094,1.25364-0.78426,1.46721-1.32079c0.02563-0.06262,0.04686-0.12517,0.0681-0.18771
							c0.01277-0.03572,0.0211-0.07138,0.02936-0.10709c0.01701-0.04913,0.02951-0.09821,0.03762-0.14725
							c0.01686-0.05798,0.0249-0.11147,0.03287-0.1693c0.00811-0.04906,0.01629-0.09355,0.0201-0.13364
							c0.05165-0.37845,0.03291-0.71581,0.02541-0.90675l3.01591-0.04823c-0.00182,0.16446-0.01082,0.43555,0.02972,0.74594
							c0.01561,0.14189,0.04026,0.29259,0.08265,0.4474c0,0,0.00008,0.00444,0.00014,0.00888
							c0.00946,0.03539,0.01899,0.07526,0.0329,0.11055c0.00961,0.04427,0.02365,0.08846,0.04221,0.13702
							c0.02317,0.06184,0.04634,0.12367,0.07401,0.18544C64.48225,158.5807,64.93021,159.08887,65.76498,159.33324z"/>
					</g>
				</g>
				<g class="st1">
					<g>
						<path d="M64.25735,158.05325c-0.48827,0.36728-1.08809,0.58865-1.74261,0.59912
							c-0.64809,0.01036-1.25461-0.19171-1.74793-0.53687c0.26551-0.6525,0.22249-1.33862,0.21104-1.65292l3.01589-0.04825
							C63.99234,156.72885,63.97121,157.416,64.25735,158.05325z"/>
					</g>
				</g>
				<g>
					<g>
						<path class="st6" d="M69.06507,160.9465c-0.53961,0.70613-1.18731,1.32071-1.91684,1.81664
							c-0.03514,0.02724-0.07036,0.04999-0.10991,0.07285l-0.09657-3.53491c0,0,1.88948,0.6362,2.0851,1.47717
							C69.04105,160.83138,69.05081,160.88893,69.06507,160.9465z"/>
					</g>
				</g>
				<g>
					<g>
						<path class="st6" d="M58.12949,159.44202l0.01659,3.53619c-0.04037-0.02158-0.08076-0.04756-0.12114-0.07355
							c-0.74515-0.47684-1.40765-1.06601-1.9651-1.75014c0.01241-0.05801,0.02038-0.11584,0.03287-0.16942
							c0.1646-0.82008,1.92194-1.50128,2.03241-1.53857C58.12949,159.44202,58.12949,159.44202,58.12949,159.44202z"/>
					</g>
				</g>
				<g>
					<g>
						<path class="st9" d="M67.14823,162.76314c-0.03514,0.02724-0.07036,0.04999-0.10991,0.07285
							c-0.3825,0.25494-0.78317,0.47905-1.20664,0.66794c-0.98825,0.43346-2.0728,0.68179-3.21873,0.70012
							c-1.15043,0.0184-2.25128-0.19942-3.25296-0.6055c-0.42478-0.17088-0.828-0.37767-1.21391-0.62033
							c-0.04037-0.02158-0.08076-0.04756-0.12114-0.07355c0.00004-1.66606,0.09313-3.3425,0.10018-3.45813
							c-0.00007-0.00444-0.00007-0.00444-0.00007-0.00444l1.17261-0.01875l0.00021,0.01334
							c0.04808,0.78557,0.20501,1.43175,0.47535,1.94275c0.5273,1.02676,1.48591,1.51343,2.81461,1.5322
							c1.32297-0.06119,2.26541-0.57825,2.75972-1.62135c0.25375-0.51939,0.39443-1.17033,0.41743-1.95703l-0.00021-0.01334
							l1.17699-0.01883C66.94176,159.30107,67.09392,161.03574,67.14823,162.76314z"/>
					</g>
				</g>
				<g>
					<g>
						<path class="st6" d="M65.1601,153.09669l0.03684,2.3036c0.02402,1.5015-1.18192,2.7467-2.6899,2.77081
							c-1.50148,0.02402-2.7467-1.18199-2.77071-2.68347l-0.06982-4.3653c0.39352,0.92433,1.33257,1.45039,2.59108,1.88602
							C63.29669,153.36397,64.33652,153.37296,65.1601,153.09669z"/>
					</g>
				</g>
				<g>
					<g>
						<g>
							<path class="st6" d="M65.66428,154.50751c-0.04582,0.5312-0.26733,0.94252-0.4868,0.92358
								c-0.22511-0.01941-0.36728-0.4621-0.32146-0.9933c0.04581-0.53114,0.26218-0.94872,0.48729-0.92931
								C65.56278,153.52742,65.71009,153.97636,65.66428,154.50751z"/>
						</g>
					</g>
					<g>
						<g>
							<path class="st6" d="M59.24068,154.61024c0.06278,0.52946,0.29733,0.93349,0.51609,0.90755
								c0.22437-0.0266,0.35231-0.4736,0.28953-1.00308c-0.06278-0.52939-0.29239-0.93983-0.51677-0.91324
								C59.31078,153.62741,59.1779,154.08086,59.24068,154.61024z"/>
						</g>
					</g>
				</g>
			</g>
		</g>
		<g>
			<g>
				<g>
					<path class="st10" d="M250.63837,77.93822c0,2.12939-0.88986,4.05034-2.31647,5.40626
						c-0.00708,0.00707-0.0141,0.01414-0.02116,0.01767c-1.33829,1.2748-3.14984,2.05518-5.14139,2.05518
						c-1.99162,0-3.80663-0.78038-5.14494-2.05871c-0.00708-0.00353-0.01414-0.0106-0.02121-0.01759
						c-1.42657-1.356-2.3129-3.27703-2.3129-5.40281c0-4.13138,3.34755-7.47902,7.47905-7.47902
						C247.29082,70.45921,250.63837,73.80685,250.63837,77.93822z"/>
				</g>
			</g>
			<g>
				<g>
					<g>
						<g>
							<path class="st4" d="M248.30074,83.36215c-1.33829,1.2748-3.14984,2.05518-5.14139,2.05518
								c-1.99162,0-3.80663-0.78038-5.14494-2.05871c0.31427-0.19777,0.66386-0.34605,1.04167-0.4414
								c0.51205-0.12708,0.96754-0.36018,1.35954-0.67442c0.04939-0.02827,0.09535-0.06715,0.13768-0.10595
								c0.03534-0.02828,0.06711-0.05647,0.09888-0.08828c0.01767-0.02474,0.03888-0.04242,0.06004-0.06354
								c0.1942-0.1907,0.36368-0.39554,0.50499-0.61796c0.37781-0.57209,0.58614-1.26066,0.58614-1.98103v-0.54726h2.70844v0.54726
								c0,0.72038,0.20833,1.40894,0.58618,1.98103c0.13768,0.22242,0.31071,0.43079,0.5014,0.62502
								c0.05652,0.0494,0.10596,0.09888,0.16243,0.14475c0.0424,0.0388,0.08473,0.07767,0.13422,0.11655
								c0.39192,0.30363,0.85452,0.53674,1.35947,0.66382C247.63687,83.01257,247.98645,83.16085,248.30074,83.36215z"/>
						</g>
					</g>
				</g>
				<g>
					<g>
						<g>
							<path class="st5" d="M245.74739,82.12501c-0.55769,0.83914-1.51044,1.39165-2.58971,1.39165
								c-1.08185,0-2.03459-0.5551-2.58972-1.39424c0.0284-0.02584,0.05423-0.04907,0.08263-0.07747
								c0.21689-0.20399,0.40796-0.43117,0.57062-0.68165c0.36922-0.5706,0.58095-1.25483,0.58095-1.97521v-0.55251h2.70848v0.55251
								c0,0.72038,0.21173,1.40461,0.58353,1.97521C245.27489,81.64474,245.49437,81.90293,245.74739,82.12501z"/>
						</g>
					</g>
				</g>
				<g>
					<g>
						<g>
							<path class="st6" d="M246.24953,77.87417c0,2.06816-1.38409,4.37384-3.09129,4.37384
								c-1.70914,0-3.09325-2.30568-3.09325-4.37384c0-2.06817,1.38411-3.11504,3.09325-3.11504
								C244.86543,74.75912,246.24953,75.806,246.24953,77.87417z"/>
						</g>
					</g>
				</g>
				<g>
					<g>
						<g>
							<path class="st7" d="M246.24506,78.34054c-0.06573,0.15881-0.13713,0.31425-0.22212,0.50771
								c-0.02946-0.4283-0.02606-0.81747-0.08727-1.19656c-0.20059-1.24577-0.82732-1.84069-2.11815-2.05318
								c-0.21646-0.03466-0.43292-0.07156-0.64938-0.10847c-0.43405-0.07379-0.86357-0.15878-1.17523-0.52111
								c-0.0782,0.14985-0.14619,0.28517-0.21986,0.41824c-0.21986,0.3914-0.52017,0.70899-0.9055,0.9483
								c-0.14166,0.08835-0.28333,0.17892-0.41139,0.28517c-0.18472,0.15207-0.26746,0.33884-0.22099,0.59045
								c0.08954,0.48085,0.13455,1.4747,0.11642,1.48366c-0.06573-0.1096-0.38615-1.26224-0.45187-1.7308
								c-0.11334-0.79398-0.08728-1.59019,0.12692-2.36965c0.20172-0.73695,0.54965-1.36318,1.42229-1.60696
								c-0.15866-0.04922-0.26292-0.08163-0.38644-0.12079c0.25386-0.10063,0.46011,0.03244,0.66411,0.10623
								c0.07367-0.18786,0.119-0.37014,0.21306-0.52222c0.08954-0.14539,0.23006-0.25945,0.37172-0.36233
								c-0.10085,0.20912-0.29465,0.64526-0.27878,0.6542c0.19379-0.28628,0.45105-0.51217,0.82277-0.56026
								c-0.15752,0.14203-0.44312,0.42606-0.44312,0.44397c0.20625-0.03355,0.42386-0.07829,0.63124-0.09842
								c0.91798-0.09058,1.77589,0.09058,2.53748,0.61505c0.8273,0.56921,1.20583,1.38779,1.25909,2.36183
								C246.89444,76.49985,246.61905,77.43139,246.24506,78.34054z"/>
						</g>
					</g>
				</g>
				<g>
					<g>
						<g>
							<path class="st6" d="M246.80679,78.28053c-0.10858,0.59208-0.40411,1.03329-0.65787,0.98676
								c-0.25374-0.04654-0.37346-0.56392-0.26486-1.15599c0.10858-0.59209,0.40411-1.03331,0.65787-0.98677
								C246.79567,77.17107,246.91539,77.68845,246.80679,78.28053z"/>
						</g>
					</g>
				</g>
				<g>
					<g>
						<g>
							<path class="st6" d="M239.50771,78.28053c0.10858,0.59208,0.40411,1.03329,0.65787,0.98676
								c0.25374-0.04654,0.37346-0.56392,0.26486-1.15599c-0.10858-0.59209-0.40411-1.03331-0.65787-0.98677
								C239.51883,77.17107,239.39911,77.68845,239.50771,78.28053z"/>
						</g>
					</g>
				</g>
				<g>
					<g>
						<g>
							<g>
								<path class="st7" d="M245.7603,82.1379c-0.05421-0.04649-0.10585-0.09554-0.1575-0.14716
									c-0.00516,0.00776-0.01031,0.01806-0.01549,0.02582c-0.54478,0.8185-1.45107,1.30646-2.42963,1.30646
									c-0.97858,0-1.88742-0.48796-2.42706-1.30646c-0.00774-0.01034-0.01291-0.02065-0.02066-0.03098
									c-0.01807,0.02065-0.03871,0.04129-0.05937,0.05938c-0.03357,0.03357-0.06456,0.06197-0.09811,0.09295
									c-0.0439,0.03873-0.08778,0.07488-0.13428,0.10845c0.61452,0.91661,1.63698,1.46396,2.73949,1.46396
									c1.09993,0,2.12238-0.54479,2.73947-1.46137C245.85068,82.21278,245.8042,82.17664,245.7603,82.1379z"/>
							</g>
						</g>
					</g>
				</g>
			</g>
		</g>
		<g>
			<g>
				<g>
					<path class="st10" d="M202.1268,155.97202c0,2.12939-0.88986,4.05034-2.31648,5.40627
						c-0.00706,0.00706-0.01408,0.01413-0.02116,0.01767c-1.33829,1.2748-3.14983,2.05518-5.14137,2.05518
						c-1.99164,0-3.80663-0.78038-5.14496-2.05872c-0.00706-0.00352-0.01413-0.0106-0.02121-0.01758
						c-1.42656-1.356-2.3129-3.27704-2.3129-5.40282c0-4.13138,3.34756-7.47902,7.47906-7.47902
						C198.77925,148.493,202.1268,151.84064,202.1268,155.97202z"/>
				</g>
			</g>
			<g>
				<g>
					<g>
						<g>
							<path class="st4" d="M199.78915,161.39595c-1.33829,1.2748-3.14983,2.05518-5.14137,2.05518
								c-1.99164,0-3.80663-0.78038-5.14496-2.05872c0.31429-0.19777,0.66386-0.34604,1.04169-0.44139
								c0.51204-0.12708,0.96754-0.36018,1.35954-0.67442c0.04939-0.02827,0.09534-0.06717,0.13768-0.10596
								c0.03534-0.02827,0.06711-0.05647,0.09888-0.08827c0.01767-0.02475,0.03888-0.04242,0.06004-0.06354
								c0.19418-0.1907,0.36368-0.39554,0.50497-0.61797c0.37782-0.5721,0.58615-1.26065,0.58615-1.98103v-0.54726h2.70844v0.54726
								c0,0.72038,0.20833,1.40894,0.58618,1.98103c0.13768,0.22243,0.3107,0.4308,0.5014,0.62503
								c0.0565,0.04939,0.10596,0.09888,0.16241,0.14474c0.04242,0.03879,0.08475,0.07768,0.13423,0.11656
								c0.39192,0.30363,0.85452,0.53674,1.35945,0.66382C199.12529,161.04637,199.47488,161.19464,199.78915,161.39595z"/>
						</g>
					</g>
				</g>
				<g>
					<g>
						<g>
							<path class="st5" d="M197.23582,160.1588c-0.55769,0.83914-1.51045,1.39166-2.58971,1.39166
								c-1.08185,0-2.03459-0.5551-2.58972-1.39424c0.0284-0.02585,0.05421-0.04907,0.08261-0.07747
								c0.2169-0.20399,0.40796-0.43117,0.57063-0.68166c0.36922-0.5706,0.58093-1.25482,0.58093-1.9752v-0.55252h2.7085v0.55252
								c0,0.72038,0.21172,1.4046,0.58353,1.9752C196.76332,159.67853,196.98279,159.93672,197.23582,160.1588z"/>
						</g>
					</g>
				</g>
				<g>
					<g>
						<g>
							<path class="st6" d="M197.73795,155.90796c0,2.06816-1.38408,4.37384-3.09128,4.37384
								c-1.70915,0-3.09326-2.30568-3.09326-4.37384s1.38411-3.11504,3.09326-3.11504
								C196.35387,152.79292,197.73795,153.8398,197.73795,155.90796z"/>
						</g>
					</g>
				</g>
				<g>
					<g>
						<g>
							<path class="st7" d="M197.73349,156.37433c-0.06573,0.15881-0.13713,0.31425-0.22214,0.50771
								c-0.02946-0.4283-0.02606-0.81747-0.08725-1.19655c-0.20061-1.24577-0.82732-1.8407-2.11815-2.05318
								c-0.21646-0.03467-0.43292-0.07156-0.64938-0.10847c-0.43405-0.07381-0.86357-0.15878-1.17523-0.52112
								c-0.0782,0.14986-0.14619,0.28517-0.21986,0.41824c-0.21986,0.3914-0.52019,0.70898-0.9055,0.9483
								c-0.14168,0.08835-0.28334,0.17892-0.41139,0.28517c-0.18474,0.15207-0.26746,0.33884-0.22099,0.59045
								c0.08952,0.48085,0.13455,1.4747,0.11641,1.48364c-0.06572-0.10959-0.38614-1.26222-0.45187-1.73079
								c-0.11333-0.79399-0.08727-1.59021,0.12694-2.36966c0.20172-0.73694,0.54965-1.36317,1.42229-1.60695
								c-0.15866-0.04922-0.26292-0.08163-0.38644-0.12079c0.25385-0.10063,0.46011,0.03244,0.66411,0.10623
								c0.07365-0.18787,0.11899-0.37015,0.21306-0.52223c0.08952-0.14539,0.23006-0.25945,0.37172-0.36232
								c-0.10086,0.20912-0.29465,0.64525-0.27878,0.65419c0.19379-0.28627,0.45105-0.51216,0.82277-0.56026
								c-0.15753,0.14203-0.44313,0.42606-0.44313,0.44397c0.20627-0.03355,0.42386-0.07829,0.63126-0.09842
								c0.91797-0.09058,1.77588,0.09058,2.53748,0.61505c0.8273,0.56921,1.20583,1.38779,1.25909,2.36182
								C198.38287,154.53365,198.10748,155.46518,197.73349,156.37433z"/>
						</g>
					</g>
				</g>
				<g>
					<g>
						<g>
							<path class="st6" d="M198.29523,156.31433c-0.10858,0.59207-0.40411,1.03329-0.65787,0.98676
								c-0.25374-0.04654-0.37346-0.56392-0.26488-1.15599c0.1086-0.59209,0.40413-1.03331,0.65788-0.98677
								C198.2841,155.20486,198.40382,155.72224,198.29523,156.31433z"/>
						</g>
					</g>
				</g>
				<g>
					<g>
						<g>
							<path class="st6" d="M190.99612,156.31433c0.1086,0.59207,0.40413,1.03329,0.65787,0.98676
								c0.25375-0.04654,0.37347-0.56392,0.26488-1.15599c-0.1086-0.59209-0.40413-1.03331-0.65787-0.98677
								S190.88754,155.72224,190.99612,156.31433z"/>
						</g>
					</g>
				</g>
				<g>
					<g>
						<g>
							<g>
								<path class="st7" d="M197.24873,160.17169c-0.05421-0.04649-0.10585-0.09554-0.1575-0.14716
									c-0.00517,0.00775-0.01031,0.01805-0.01549,0.02582c-0.5448,0.8185-1.45107,1.30646-2.42963,1.30646
									c-0.97858,0-1.88742-0.48796-2.42706-1.30646c-0.00774-0.01035-0.01291-0.02065-0.02066-0.03099
									c-0.01808,0.02065-0.03873,0.04129-0.05939,0.05939c-0.03355,0.03357-0.06454,0.06197-0.09811,0.09294
									c-0.04388,0.03874-0.08777,0.07489-0.13426,0.10846c0.61452,0.91661,1.63698,1.46396,2.73949,1.46396
									c1.09991,0,2.12238-0.5448,2.73947-1.46138C197.33911,160.24658,197.29263,160.21043,197.24873,160.17169z"/>
							</g>
						</g>
					</g>
				</g>
			</g>
		</g>
		<g>
			<g>
				<g>
					<path class="st10" d="M23.76284,77.89681c0,2.1294-0.88987,4.05034-2.31648,5.40626
						c-0.00707,0.00707-0.0141,0.01414-0.02116,0.01768c-1.33829,1.2748-3.14983,2.05517-5.14138,2.05517
						c-1.99164,0-3.80662-0.78037-5.14496-2.0587c-0.00707-0.00354-0.01414-0.0106-0.02121-0.01759
						c-1.42657-1.356-2.3129-3.27703-2.3129-5.40281c0-4.13138,3.34755-7.47902,7.47906-7.47902
						C20.41528,70.41779,23.76284,73.76543,23.76284,77.89681z"/>
				</g>
			</g>
			<g>
				<g>
					<g>
						<g>
							<path class="st4" d="M21.4252,83.32075c-1.33829,1.2748-3.14983,2.05517-5.14138,2.05517
								c-1.99164,0-3.80662-0.78037-5.14496-2.0587c0.31428-0.19777,0.66386-0.34605,1.04168-0.4414
								c0.51205-0.12708,0.96754-0.36019,1.35954-0.67443c0.0494-0.02827,0.09535-0.06715,0.13768-0.10595
								c0.03535-0.02827,0.06711-0.05647,0.09888-0.08828c0.01767-0.02474,0.03888-0.04241,0.06005-0.06354
								c0.19419-0.1907,0.36368-0.39553,0.50498-0.61796c0.37782-0.57209,0.58614-1.26065,0.58614-1.98103v-0.54726h2.70843v0.54726
								c0,0.72038,0.20833,1.40894,0.58619,1.98103c0.13768,0.22243,0.3107,0.43079,0.5014,0.62503
								c0.05651,0.04939,0.10595,0.09888,0.16242,0.14474c0.04242,0.0388,0.08475,0.07767,0.13423,0.11655
								c0.39191,0.30363,0.85452,0.53675,1.35945,0.66383C20.76133,82.97116,21.11092,83.11945,21.4252,83.32075z"/>
						</g>
					</g>
				</g>
				<g>
					<g>
						<g>
							<path class="st5" d="M18.87186,82.0836c-0.5577,0.83914-1.51045,1.39165-2.58971,1.39165
								c-1.08185,0-2.03459-0.55509-2.58972-1.39423c0.0284-0.02585,0.05423-0.04907,0.08263-0.07748
								c0.21689-0.20398,0.40796-0.43117,0.57062-0.68164c0.36922-0.57061,0.58094-1.25484,0.58094-1.97521v-0.55252h2.70849
								v0.55252c0,0.72038,0.21172,1.4046,0.58353,1.97521C18.39935,81.60332,18.61883,81.86152,18.87186,82.0836z"/>
						</g>
					</g>
				</g>
				<g>
					<g>
						<g>
							<path class="st6" d="M19.37399,77.83276c0,2.06817-1.38408,4.37384-3.09128,4.37384
								c-1.70915,0-3.09326-2.30567-3.09326-4.37384s1.38411-3.11504,3.09326-3.11504
								C17.9899,74.71771,19.37399,75.76459,19.37399,77.83276z"/>
						</g>
					</g>
				</g>
				<g>
					<g>
						<g>
							<path class="st7" d="M19.36953,78.29913c-0.06573,0.1588-0.13713,0.31424-0.22213,0.50771
								c-0.02947-0.4283-0.02606-0.81747-0.08726-1.19656c-0.2006-1.24577-0.82732-1.84068-2.11814-2.05318
								c-0.21646-0.03466-0.43292-0.07156-0.64939-0.10847c-0.43405-0.0738-0.86358-0.15879-1.17523-0.52111
								c-0.0782,0.14984-0.14619,0.28516-0.21986,0.41824c-0.21986,0.3914-0.52018,0.70898-0.90551,0.9483
								c-0.14166,0.08835-0.28333,0.17892-0.41139,0.28516c-0.18473,0.15207-0.26746,0.33884-0.221,0.59045
								c0.08954,0.48086,0.13456,1.4747,0.11642,1.48366c-0.06573-0.10959-0.38614-1.26224-0.45188-1.7308
								c-0.11333-0.79398-0.08727-1.59019,0.12693-2.36965c0.20172-0.73694,0.54965-1.36317,1.42229-1.60696
								c-0.15866-0.04921-0.26293-0.08163-0.38645-0.12078c0.25386-0.10064,0.46012,0.03243,0.66411,0.10623
								c0.07366-0.18787,0.11899-0.37015,0.21306-0.52223c0.08953-0.14538,0.23006-0.25945,0.37172-0.36232
								c-0.10086,0.20911-0.29466,0.64525-0.27879,0.65419c0.19379-0.28627,0.45105-0.51217,0.82278-0.56026
								c-0.15753,0.14202-0.44312,0.42606-0.44312,0.44397c0.20626-0.03355,0.42385-0.07829,0.63125-0.09843
								c0.91797-0.09058,1.77588,0.09059,2.53747,0.61506c0.82731,0.56921,1.20583,1.38779,1.2591,2.36182
								C20.01891,76.45844,19.74352,77.38998,19.36953,78.29913z"/>
						</g>
					</g>
				</g>
				<g>
					<g>
						<g>
							<path class="st6" d="M19.93126,78.23913c-0.10859,0.59207-0.40412,1.03329-0.65787,0.98676
								c-0.25374-0.04654-0.37346-0.56392-0.26487-1.15599c0.10859-0.59209,0.40413-1.03331,0.65787-0.98677
								C19.92014,77.12965,20.03986,77.64703,19.93126,78.23913z"/>
						</g>
					</g>
				</g>
				<g>
					<g>
						<g>
							<path class="st6" d="M12.63217,78.23913c0.10859,0.59207,0.40412,1.03329,0.65787,0.98676
								c0.25374-0.04654,0.37346-0.56392,0.26487-1.15599c-0.10859-0.59209-0.40413-1.03331-0.65787-0.98677
								C12.64329,77.12965,12.52357,77.64703,12.63217,78.23913z"/>
						</g>
					</g>
				</g>
				<g>
					<g>
						<g>
							<g>
								<path class="st7" d="M18.88477,82.09649c-0.05421-0.04649-0.10585-0.09553-0.1575-0.14716
									c-0.00517,0.00775-0.01032,0.01806-0.01549,0.02581c-0.54479,0.8185-1.45107,1.30647-2.42963,1.30647
									c-0.97858,0-1.88742-0.48797-2.42706-1.30647c-0.00774-0.01034-0.01291-0.02065-0.02066-0.03098
									c-0.01808,0.02065-0.03872,0.04129-0.05938,0.05938c-0.03357,0.03357-0.06455,0.06197-0.09812,0.09295
									c-0.04389,0.03873-0.08778,0.07489-0.13427,0.10845c0.61451,0.91662,1.63698,1.46396,2.73948,1.46396
									c1.09992,0,2.12237-0.54479,2.73947-1.46137C18.97515,82.17138,18.92867,82.13522,18.88477,82.09649z"/>
							</g>
						</g>
					</g>
				</g>
			</g>
		</g>
		<g>
			<g>
				<g>
					<path class="st4" d="M257.5,103.6748c0,1.93681-0.66635,3.71815-1.7769,5.12637
						c-0.55083,0.69741-1.20827,1.30154-1.94565,1.78574c-0.03557,0.02668-0.07114,0.04886-0.11105,0.07109
						c-0.38652,0.24879-0.79073,0.46645-1.21718,0.64855c-0.99506,0.41759-2.08344,0.64854-3.22951,0.64854
						c-1.15059,0-2.2478-0.2354-3.24286-0.65744c-0.422-0.17764-0.82187-0.39086-1.20384-0.63966
						c-0.04001-0.02223-0.07997-0.04886-0.11993-0.07549c-0.73744-0.48869-1.39043-1.08838-1.93687-1.78134
						c-1.11057-1.40821-1.7769-3.18955-1.7769-5.12637c0-4.57108,3.70488-8.28035,8.28041-8.28035
						C253.79074,95.39445,257.5,99.10371,257.5,103.6748z"/>
				</g>
			</g>
			<g>
				<g>
					<g>
						<path class="st7" d="M252.73993,100.42789v8.65572h-6.9886v-8.65572c0-1.93168,1.56583-3.49117,3.49109-3.49117
							c0.96906,0,1.84183,0.39146,2.47081,1.02036C252.34854,98.58599,252.73993,99.45885,252.73993,100.42789z"/>
					</g>
				</g>
				<g>
					<g>
						<path class="st6" d="M252.44922,107.13532v4.17122c-0.99506,0.41759-2.08344,0.64854-3.22951,0.64854
							c-1.15059,0-2.2478-0.2354-3.24286-0.65744v-4.16232h0.00444c0.8307-0.25768,1.26604-0.76411,1.48814-1.29716
							c0.02663-0.06219,0.04886-0.1244,0.07109-0.18659c0.01334-0.03552,0.02223-0.07104,0.03107-0.10661
							c0.01779-0.04886,0.03108-0.09771,0.03996-0.14662c0.01779-0.0577,0.02669-0.11106,0.03558-0.16875
							c0.0089-0.04891,0.01778-0.09327,0.02223-0.13329c0.05769-0.37758,0.04436-0.71519,0.0399-0.90623h3.01631
							c-0.00446,0.16441-0.01779,0.43533,0.01778,0.74632c0.01334,0.14213,0.03558,0.29321,0.07549,0.44867c0,0,0,0.00445,0,0.0089
							c0.0089,0.03551,0.01779,0.07554,0.03113,0.11105c0.0089,0.04441,0.02223,0.08882,0.04002,0.13768
							c0.02217,0.0622,0.04436,0.1244,0.07103,0.1866C251.1787,106.36237,251.61847,106.87764,252.44922,107.13532z"/>
					</g>
				</g>
				<g class="st1">
					<g>
						<path d="M250.96227,105.83139c-0.49408,0.35942-1.09737,0.57117-1.75197,0.57117c-0.64818,0-1.25139-0.21175-1.73912-0.56475
							c0.27591-0.64817,0.24387-1.33489,0.23744-1.64935h3.01628C250.71848,104.50292,250.68636,105.18964,250.96227,105.83139z"/>
					</g>
				</g>
				<g>
					<g>
						<path class="st6" d="M255.7231,108.80116c-0.55083,0.69741-1.20827,1.30154-1.94565,1.78574
							c-0.03557,0.02668-0.07114,0.04886-0.11105,0.07109l-0.04002-3.53601c0,0,1.87906,0.66634,2.06122,1.51032
							C255.70093,108.68566,255.70976,108.74335,255.7231,108.80116z"/>
					</g>
				</g>
				<g>
					<g>
						<path class="st6" d="M244.81299,107.12198l-0.03998,3.53601c-0.04001-0.02223-0.07997-0.04886-0.11993-0.07549
							c-0.73744-0.48869-1.39043-1.08838-1.93687-1.78134c0.01334-0.05781,0.02223-0.1155,0.03557-0.16886
							c0.1777-0.81736,1.94571-1.47035,2.05676-1.50587C244.81299,107.12198,244.81299,107.12198,244.81299,107.12198z"/>
					</g>
				</g>
				<g>
					<g>
						<path class="st8" d="M253.77745,110.5869c-0.03557,0.02668-0.07114,0.04886-0.11105,0.07109
							c-0.38652,0.24879-0.79073,0.46645-1.21718,0.64855c-0.99506,0.41759-2.08344,0.64854-3.22951,0.64854
							c-1.15059,0-2.2478-0.2354-3.24286-0.65744c-0.422-0.17764-0.82187-0.39086-1.20384-0.63966
							c-0.04001-0.02223-0.07997-0.04886-0.11993-0.07549c0.02667-1.66584,0.14656-3.34058,0.15546-3.45608
							c0-0.00445,0-0.00445,0-0.00445h1.17276v0.01334c0.03552,0.78623,0.1821,1.43484,0.44423,1.9501
							c0.51082,1.03508,1.46152,1.53699,2.78973,1.57702c1.32379-0.04002,2.27438-0.54194,2.78529-1.57702
							c0.26202-0.51526,0.4131-1.16386,0.44867-1.9501v-0.01334h1.17715
							C253.62637,107.12198,253.75078,108.85886,253.77745,110.5869z"/>
					</g>
				</g>
				<g>
					<g>
						<path class="st6" d="M251.94417,100.8899v2.3039c0,1.50168-1.22569,2.72745-2.73387,2.72745
							c-1.50168,0-2.72745-1.22577-2.72745-2.72745v-4.36586c0.37869,0.93051,1.3092,1.47152,2.56058,1.92722
							C250.07672,101.12734,251.11627,101.15296,251.94417,100.8899z"/>
					</g>
				</g>
				<g>
					<g>
						<g>
							<path class="st6" d="M252.42572,102.30859c-0.05431,0.5304-0.28236,0.93813-0.50151,0.91569
								c-0.22478-0.02301-0.35985-0.46792-0.30553-0.99832c0.05429-0.53033,0.27731-0.9444,0.50209-0.92139
								C252.3399,101.32701,252.48001,101.77826,252.42572,102.30859z"/>
						</g>
					</g>
					<g>
						<g>
							<path class="st6" d="M246.0013,102.30859c0.05431,0.5304,0.28236,0.93813,0.50151,0.91569
								c0.22478-0.02301,0.35983-0.46792,0.30553-0.99832c-0.05429-0.53033-0.27731-0.9444-0.50209-0.92139
								C246.0871,101.32701,245.94699,101.77826,246.0013,102.30859z"/>
						</g>
					</g>
				</g>
			</g>
		</g>
		<g>
			<g>
				<g>
					<path class="st4" d="M16.76201,103.54101c0,2.13425-0.89189,4.05956-2.32175,5.41856
						c-0.00709,0.00709-0.01413,0.01417-0.02121,0.01772c-1.34133,1.27769-3.157,2.05985-5.15308,2.05985
						c-1.99617,0-3.81529-0.78216-5.15667-2.0634c-0.00709-0.00354-0.01417-0.01063-0.02126-0.01762
						c-1.42982-1.35909-2.31816-3.28449-2.31816-5.41511c0-4.14079,3.35517-7.49605,7.49609-7.49605
						C13.40684,96.04496,16.76201,99.40022,16.76201,103.54101z"/>
				</g>
			</g>
			<g>
				<g>
					<g>
						<g>
							<path class="st11" d="M14.41905,108.97729c-1.34133,1.27769-3.157,2.05985-5.15308,2.05985
								c-1.99617,0-3.81529-0.78216-5.15667-2.0634c0.315-0.19821,0.66538-0.34683,1.04405-0.4424
								c0.51321-0.12737,0.96974-0.36101,1.36263-0.67596c0.04951-0.02834,0.09557-0.06731,0.13799-0.10619
								c0.03543-0.02834,0.06727-0.05659,0.09911-0.08848c0.01771-0.0248,0.03897-0.04251,0.06018-0.06368
								c0.19463-0.19113,0.36451-0.39643,0.50613-0.61936c0.37868-0.57339,0.58748-1.26353,0.58748-1.98554v-0.54851h2.7146v0.54851
								c0,0.72202,0.2088,1.41215,0.58752,1.98554c0.13799,0.22293,0.31141,0.43178,0.50254,0.62645
								c0.05664,0.04951,0.10619,0.09911,0.16279,0.14507c0.04251,0.03889,0.08494,0.07786,0.13454,0.11683
								c0.39281,0.30432,0.85646,0.53796,1.36255,0.66533C13.75368,108.62691,14.10406,108.77553,14.41905,108.97729z"/>
						</g>
					</g>
				</g>
				<g>
					<g>
						<g>
							<path class="st5" d="M11.85991,107.73732c-0.55897,0.84106-1.51389,1.39483-2.5956,1.39483
								c-1.08431,0-2.03923-0.55637-2.59562-1.39742c0.02846-0.0259,0.05435-0.04919,0.08281-0.07765
								c0.21739-0.20444,0.40889-0.43215,0.57192-0.6832c0.37006-0.5719,0.58227-1.25769,0.58227-1.97971v-0.55377h2.71465v0.55377
								c0,0.72202,0.21221,1.40781,0.58486,1.97971C11.38632,107.25595,11.6063,107.51474,11.85991,107.73732z"/>
						</g>
					</g>
				</g>
				<g>
					<g>
						<g>
							<path class="st6" d="M12.36317,103.4768c0,2.07288-1.38724,4.3838-3.09832,4.3838c-1.71304,0-3.1003-2.31093-3.1003-4.3838
								s1.38726-3.12213,3.1003-3.12213C10.97594,100.35467,12.36317,101.40392,12.36317,103.4768z"/>
						</g>
					</g>
				</g>
				<g>
					<g>
						<g>
							<path class="st7" d="M12.3587,103.94424c-0.06588,0.15916-0.13744,0.31496-0.22264,0.50887
								c-0.02953-0.42928-0.02612-0.81934-0.08746-1.19929c-0.20105-1.2486-0.8292-1.84488-2.12297-2.05785
								c-0.21696-0.03474-0.43391-0.07172-0.65087-0.10871c-0.43504-0.07397-0.86554-0.15915-1.17791-0.5223
								c-0.07838,0.15019-0.14653,0.28582-0.22036,0.41919c-0.22036,0.39229-0.52137,0.7106-0.90757,0.95046
								c-0.14199,0.08855-0.28397,0.17933-0.41233,0.28582c-0.18515,0.15241-0.26807,0.33961-0.2215,0.5918
								c0.08974,0.48195,0.13487,1.47806,0.11669,1.48703c-0.06588-0.10984-0.38702-1.26511-0.45291-1.73474
								c-0.11359-0.79578-0.08747-1.59382,0.12722-2.37505c0.20218-0.73862,0.5509-1.36628,1.42553-1.61062
								c-0.15903-0.04932-0.26353-0.08182-0.38733-0.12106c0.25444-0.10086,0.46117,0.03251,0.66563,0.10648
								c0.07383-0.18829,0.11927-0.37099,0.21355-0.52342c0.08973-0.14571,0.23058-0.26004,0.37257-0.36314
								c-0.10109,0.20959-0.29533,0.64672-0.27942,0.65568c0.19423-0.28693,0.45208-0.51334,0.82465-0.56153
								c-0.15789,0.14234-0.44413,0.42702-0.44413,0.44498c0.20673-0.03363,0.42482-0.07847,0.63269-0.09865
								c0.92006-0.09078,1.77993,0.0908,2.54324,0.61646c0.82919,0.57051,1.20857,1.39095,1.26196,2.3672
								C13.00956,102.09936,12.73354,103.03302,12.3587,103.94424z"/>
						</g>
					</g>
				</g>
				<g>
					<g>
						<g>
							<path class="st6" d="M12.92172,103.88409c-0.10884,0.59342-0.40504,1.03564-0.65936,0.98901
								c-0.25432-0.04665-0.37431-0.5652-0.26548-1.15862c0.10884-0.59344,0.40505-1.03566,0.65937-0.98902
								C12.91057,102.7721,13.03056,103.29066,12.92172,103.88409z"/>
						</g>
					</g>
				</g>
				<g>
					<g>
						<g>
							<path class="st6" d="M5.60601,103.88409c0.10884,0.59342,0.40504,1.03564,0.65936,0.98901
								c0.25432-0.04665,0.37431-0.5652,0.26548-1.15862c-0.10884-0.59344-0.40505-1.03566-0.65937-0.98902
								C5.61716,102.7721,5.49717,103.29066,5.60601,103.88409z"/>
						</g>
					</g>
				</g>
				<g>
					<g>
						<g>
							<g>
								<path class="st7" d="M11.87284,107.75024c-0.05433-0.0466-0.10609-0.09575-0.15786-0.14749
									c-0.00518,0.00777-0.01035,0.0181-0.01553,0.02587c-0.54603,0.82036-1.45437,1.30943-2.43516,1.30943
									c-0.98081,0-1.89172-0.48907-2.43259-1.30943c-0.00776-0.01036-0.01294-0.02069-0.02071-0.03106
									c-0.01812,0.0207-0.03881,0.04139-0.05952,0.05952c-0.03364,0.03365-0.0647,0.06211-0.09834,0.09316
									c-0.04399,0.03883-0.08798,0.07506-0.13457,0.1087c0.61591,0.9187,1.6407,1.46729,2.74572,1.46729
									c1.10243,0,2.1272-0.54603,2.7457-1.4647C11.96343,107.8253,11.91685,107.78907,11.87284,107.75024z"/>
							</g>
						</g>
					</g>
				</g>
			</g>
		</g>
		<g>
			<g>
				<g>
					<rect x="99.47673" y="101.27622" class="st7" width="58.34431" height="61.4992"/>
				</g>
			</g>
			<g>
				<g>
					<g>
						<path class="st4" d="M161.11229,149.34598v15.11055c0.0002,6.59317-66.43198,6.59317-66.43217,0v-15.11055H161.11229z"/>
					</g>
				</g>
				<g>
					<g>
						<path class="st7" d="M161.11229,149.34601c0,1.62726-14.87288,2.94562-33.21221,2.94562
							c-18.34709,0-33.21996-1.31836-33.21996-2.94562c0-1.6274,14.87287-2.94569,33.21996-2.94569
							C146.23941,146.40031,161.11229,147.71861,161.11229,149.34601z"/>
					</g>
				</g>
				<g>
					<g>
						<g>
							<path class="st12" d="M122.54371,160.7881c0,1.67972-1.3631,3.04295-3.04297,3.04295
								c-1.66739,0-3.03078-1.36324-3.03078-3.04295c0-1.66754,1.3634-3.03079,3.03078-3.03079
								C121.18061,157.75731,122.54371,159.12056,122.54371,160.7881z"/>
						</g>
					</g>
					<g>
						<g>
							<path class="st11" d="M130.93307,160.7881c0,1.67972-1.3631,3.04295-3.04296,3.04295
								c-1.6674,0-3.03078-1.36324-3.03078-3.04295c0-1.66754,1.36339-3.03079,3.03078-3.03079
								C129.56998,157.75731,130.93307,159.12056,130.93307,160.7881z"/>
						</g>
					</g>
					<g>
						<g>
							<path class="st13" d="M139.32245,160.7881c0,1.67972-1.3631,3.04295-3.04297,3.04295
								c-1.66739,0-3.03078-1.36324-3.03078-3.04295c0-1.66754,1.36339-3.03079,3.03078-3.03079
								C137.95935,157.75731,139.32245,159.12056,139.32245,160.7881z"/>
						</g>
					</g>
				</g>
			</g>
			<g>
				<g>
					<g>
						<path class="st4" d="M161.11229,129.53609v15.11055c0.0002,6.59317-66.43198,6.59317-66.43217,0v-15.11055H161.11229z"/>
					</g>
				</g>
				<g>
					<g>
						<path class="st7" d="M161.11229,129.53612c0,1.62727-14.87288,2.94562-33.21221,2.94562
							c-18.34709,0-33.21996-1.31834-33.21996-2.94562c0-1.62739,14.87287-2.94569,33.21996-2.94569
							C146.23941,126.59043,161.11229,127.90873,161.11229,129.53612z"/>
					</g>
				</g>
				<g>
					<g>
						<g>
							<path class="st12" d="M122.54371,140.97821c0,1.67972-1.3631,3.04297-3.04297,3.04297
								c-1.66739,0-3.03078-1.36325-3.03078-3.04297c0-1.66754,1.3634-3.03078,3.03078-3.03078
								C121.18061,137.94743,122.54371,139.31067,122.54371,140.97821z"/>
						</g>
					</g>
					<g>
						<g>
							<path class="st11" d="M130.93307,140.97821c0,1.67972-1.3631,3.04297-3.04296,3.04297
								c-1.6674,0-3.03078-1.36325-3.03078-3.04297c0-1.66754,1.36339-3.03078,3.03078-3.03078
								C129.56998,137.94743,130.93307,139.31067,130.93307,140.97821z"/>
						</g>
					</g>
					<g>
						<g>
							<path class="st13" d="M139.32245,140.97821c0,1.67972-1.3631,3.04297-3.04297,3.04297
								c-1.66739,0-3.03078-1.36325-3.03078-3.04297c0-1.66754,1.36339-3.03078,3.03078-3.03078
								C137.95935,137.94743,139.32245,139.31067,139.32245,140.97821z"/>
						</g>
					</g>
				</g>
			</g>
			<g>
				<g>
					<g>
						<path class="st4" d="M161.11229,109.7262v15.11056c0.0002,6.59317-66.43198,6.59317-66.43217,0V109.7262H161.11229z"/>
					</g>
				</g>
				<g>
					<g>
						<path class="st7" d="M161.11229,109.72623c0,1.62727-14.87288,2.94563-33.21221,2.94563
							c-18.34709,0-33.21996-1.31836-33.21996-2.94563c0-1.62739,14.87287-2.94569,33.21996-2.94569
							C146.23941,106.78055,161.11229,108.09885,161.11229,109.72623z"/>
					</g>
				</g>
				<g>
					<g>
						<g>
							<path class="st12" d="M122.54371,121.16833c0,1.67973-1.3631,3.04297-3.04297,3.04297
								c-1.66739,0-3.03078-1.36324-3.03078-3.04297c0-1.66753,1.3634-3.03078,3.03078-3.03078
								C121.18061,118.13755,122.54371,119.50079,122.54371,121.16833z"/>
						</g>
					</g>
					<g>
						<g>
							<path class="st11" d="M130.93307,121.16833c0,1.67973-1.3631,3.04297-3.04296,3.04297
								c-1.6674,0-3.03078-1.36324-3.03078-3.04297c0-1.66753,1.36339-3.03078,3.03078-3.03078
								C129.56998,118.13755,130.93307,119.50079,130.93307,121.16833z"/>
						</g>
					</g>
					<g>
						<g>
							<path class="st13" d="M139.32245,121.16833c0,1.67973-1.3631,3.04297-3.04297,3.04297
								c-1.66739,0-3.03078-1.36324-3.03078-3.04297c0-1.66753,1.36339-3.03078,3.03078-3.03078
								C137.95935,118.13755,139.32245,119.50079,139.32245,121.16833z"/>
						</g>
					</g>
				</g>
			</g>
			<g>
				<g>
					<g>
						<path class="st4" d="M161.11229,89.24861v15.11056c0.0002,6.59317-66.43198,6.59317-66.43217,0V89.24861H161.11229z"/>
					</g>
				</g>
				<g>
					<g>
						<path class="st7" d="M161.11229,89.24865c0,1.62727-14.87288,2.94562-33.21221,2.94562
							c-18.34709,0-33.21996-1.31835-33.21996-2.94562c0-1.6274,14.87287-2.94569,33.21996-2.94569
							C146.23941,86.30296,161.11229,87.62125,161.11229,89.24865z"/>
					</g>
				</g>
				<g>
					<g>
						<g>
							<path class="st12" d="M122.54371,100.69074c0,1.67972-1.3631,3.04296-3.04297,3.04296
								c-1.66739,0-3.03078-1.36324-3.03078-3.04296c0-1.66754,1.3634-3.03078,3.03078-3.03078
								C121.18061,97.65996,122.54371,99.0232,122.54371,100.69074z"/>
						</g>
					</g>
					<g>
						<g>
							<path class="st11" d="M130.93307,100.69074c0,1.67972-1.3631,3.04296-3.04296,3.04296
								c-1.6674,0-3.03078-1.36324-3.03078-3.04296c0-1.66754,1.36339-3.03078,3.03078-3.03078
								C129.56998,97.65996,130.93307,99.0232,130.93307,100.69074z"/>
						</g>
					</g>
					<g>
						<g>
							<path class="st13" d="M139.32245,100.69074c0,1.67972-1.3631,3.04296-3.04297,3.04296
								c-1.66739,0-3.03078-1.36324-3.03078-3.04296c0-1.66754,1.36339-3.03078,3.03078-3.03078
								C137.95935,97.65996,139.32245,99.0232,139.32245,100.69074z"/>
						</g>
					</g>
				</g>
			</g>
		</g>
	</g>
</g>
</svg>
