<?xml version="1.0" encoding="UTF-8" standalone="no"?>
<svg
   xmlns:dc="http://purl.org/dc/elements/1.1/"
   xmlns:cc="http://creativecommons.org/ns#"
   xmlns:rdf="http://www.w3.org/1999/02/22-rdf-syntax-ns#"
   xmlns:svg="http://www.w3.org/2000/svg"
   xmlns="http://www.w3.org/2000/svg"
   xmlns:sodipodi="http://sodipodi.sourceforge.net/DTD/sodipodi-0.dtd"
   xmlns:inkscape="http://www.inkscape.org/namespaces/inkscape"
   sodipodi:docname="HFH_community_logo_02.svg"
   inkscape:version="1.0 (4035a4f, 2020-05-01)"
   id="svg956"
   version="1.1"
   viewBox="0 0 59 59"
   height="59mm"
   width="59mm">
  <defs
     id="defs950" />
  <sodipodi:namedview
     fit-margin-bottom="0"
     fit-margin-right="0"
     fit-margin-left="0"
     fit-margin-top="0"
     inkscape:window-maximized="0"
     inkscape:window-y="125"
     inkscape:window-x="1605"
     inkscape:window-height="844"
     inkscape:window-width="1440"
     showgrid="false"
     inkscape:document-rotation="0"
     inkscape:current-layer="layer1"
     inkscape:document-units="mm"
     inkscape:cy="365.48908"
     inkscape:cx="44.538337"
     inkscape:zoom="0.62368751"
     inkscape:pageshadow="2"
     inkscape:pageopacity="0.0"
     borderopacity="1.0"
     bordercolor="#666666"
     pagecolor="#ffffff"
     id="base" />
  <metadata
     id="metadata953">
    <rdf:RDF>
      <cc:Work
         rdf:about="">
        <dc:format>image/svg+xml</dc:format>
        <dc:type
           rdf:resource="http://purl.org/dc/dcmitype/StillImage" />
        <dc:title></dc:title>
      </cc:Work>
    </rdf:RDF>
  </metadata>
  <g
     transform="translate(-75.5,-119)"
     id="layer1"
     inkscape:groupmode="layer"
     inkscape:label="Layer 1">
    <g
       id="g1528">
      <circle
         style="fill:none;fill-opacity:1;stroke:#daa532;stroke-width:1.7;stroke-miterlimit:4;stroke-dasharray:none;stroke-opacity:1"
         id="circle2118"
         cx="105"
         cy="148.5"
         r="28.65" />
      <path
         style="fill:#f9a602;fill-opacity:0.99;stroke-width:0.999997"
         d="m 119.36774,129.85824 c 0.0803,1.63904 -1.61846,5.84957 -3.77479,9.35671 -4.06689,6.61458 -5.06091,14.21979 -2.35834,18.04331 0.85931,1.21567 3.11286,3.20301 6.15235,4.40279 1.16283,0.45878 2.33251,0.63528 3.27566,0.95505 0.9901,0.33622 3.40158,0.62641 4.28849,-0.29336 1.48053,-1.53576 1.35331,0.82324 -0.60421,1.77508 -1.13743,0.55279 -3.28393,0.60093 -5.15862,0.33382 -6.07065,-0.8646 -7.44544,-2.04273 -8.96947,-2.92298 -1.07525,-0.62105 -1.92402,-1.14706 -2.90316,-2.20553 -3.90487,-4.22101 -2.92007,-11.22826 2.61671,-18.61997 2.74077,-3.65893 5.50214,-8.2619 6.13639,-10.22883 1.0546,-3.27023 1.1657,-3.32123 1.29899,-0.59598 z"
         id="path2108"
         sodipodi:nodetypes="sssssssssssss" />
      <circle
         style="fill:#f9a602;fill-opacity:0.99;stroke:none;stroke-width:0.3;stroke-miterlimit:4;stroke-dasharray:none"
         id="circle2110"
         cx="-104.99889"
         cy="-166.82332"
         r="4.6291904"
         transform="scale(-1)" />
      <path
         sodipodi:nodetypes="sssssssssssss"
         id="path2112"
         d="m 90.632265,167.14176 c -0.08032,-1.63905 1.618461,-5.84959 3.774784,-9.35673 4.066893,-6.61457 5.060917,-14.21979 2.358341,-18.0433 -0.859303,-1.21568 -3.112858,-3.20301 -6.152348,-4.4028 -1.162833,-0.45878 -2.332515,-0.63527 -3.27566,-0.95505 -0.990095,-0.33621 -3.401575,-0.6264 -4.288489,0.29337 -1.480532,1.53575 -1.353311,-0.82325 0.60421,-1.77508 1.137425,-0.5528 3.28393,-0.60094 5.158622,-0.33383 6.070649,0.8646 7.445439,2.04273 8.969467,2.92298 1.075246,0.62105 1.924017,1.14707 2.903168,2.20553 3.90486,4.22101 2.92006,11.22826 -2.616713,18.61997 -2.740775,3.65893 -5.502142,8.2619 -6.136401,10.22882 -1.054597,3.27025 -1.165693,3.32124 -1.298981,0.596 z"
         style="fill:#d7722c;fill-opacity:1;stroke-width:0.999997" />
      <circle
         r="4.6291904"
         cy="130.17668"
         cx="105.00364"
         id="circle2114"
         style="fill:#d7722c;fill-opacity:1;stroke:none;stroke-width:0.3;stroke-miterlimit:4;stroke-dasharray:none" />
      <path
         id="path2116"
         d="m 86.053981,149.86963 c -1.342193,-0.83554 -1.839186,-1.75253 -1.568871,-2.8947 0.137467,-0.58149 0.564111,-1.31932 0.893156,-1.54485 0.09128,-0.0627 0.244027,-0.18772 0.339059,-0.27789 0.281912,-0.26792 1.228632,-0.78785 1.264779,-0.69467 0.01782,0.0473 -0.157186,0.25407 -0.39008,0.45941 -0.333523,0.29416 -0.471392,0.52654 -0.650383,1.09634 -0.406015,1.29332 -0.183428,2.10629 0.85768,3.13341 1.356201,1.33815 6.595146,3.10777 10.373355,3.50398 0.367008,0.0383 0.895188,0.10618 1.173959,0.15055 0.278423,0.0447 0.625727,0.0785 0.77104,0.0759 0.145127,-0.003 0.567031,0.0152 0.937285,0.0394 2.74752,0.1805 7.27004,0.019 9.61671,-0.34358 0.18897,-0.0303 0.3686,-0.0429 0.39832,-0.0303 0.0494,0.019 0.36147,-0.019 1.52928,-0.18203 0.12036,-0.0152 0.46204,-0.0622 0.76025,-0.10125 4.08697,-0.53189 7.79632,-1.58059 9.11539,-2.5771 1.09842,-0.82981 1.45378,-1.30277 1.75189,-2.33166 0.21987,-0.75967 0.23678,-0.92986 0.12624,-1.31653 -0.13686,-0.47927 -0.58594,-1.13534 -1.13458,-1.65594 l -0.34395,-0.32609 0.52689,0.21839 c 0.71701,0.29704 2.06218,1.25839 2.54296,1.81734 0.21691,0.25218 0.46426,0.68217 0.54886,0.95542 0.13447,0.43448 0.12803,0.58469 -0.0551,1.19736 -0.59766,2.00644 -3.42945,3.43963 -9.03585,4.57308 -6.6056,1.33541 -16.595734,1.30356 -22.77088,-0.0728 -2.616479,-0.58307 -5.902412,-1.82816 -7.578033,-2.87128 z m 1.723865,-0.90179 c -1.123584,-0.76428 -1.578491,-1.50963 -1.394881,-2.28567 0.128024,-0.54107 0.458206,-1.04632 1.017001,-1.55513 0.423034,-0.38539 2.083058,-1.39237 2.123501,-1.28813 0.01176,0.0357 -0.221919,0.3278 -0.524676,0.64767 -0.30876,0.32609 -0.586993,0.73528 -0.633413,0.93158 -0.226356,0.95567 0.54171,2.26682 1.784916,3.0479 1.221544,0.76739 3.342057,1.45723 6.316553,2.05552 1.723804,0.34661 3.504367,0.61009 4.161403,0.61581 0.17629,0.002 0.55452,0.0152 0.84059,0.0265 2.76142,0.12931 7.42652,6.4e-4 8.90973,-0.24574 0.18958,-0.0303 0.3697,-0.047 0.39998,-0.0341 0.0836,0.0379 1.40345,-0.17823 2.63879,-0.42787 3.28829,-0.66481 5.95879,-1.91229 6.96463,-3.25336 0.79796,-1.06387 0.24786,-2.62084 -1.24105,-3.5129 -1.132,-0.67824 -0.74224,-0.63681 0.69846,0.0742 1.42185,0.70169 2.02773,1.15646 2.61005,1.95924 0.96942,1.33646 -0.40272,2.95249 -3.48895,4.11054 -1.08694,0.40782 -4.50818,1.3727 -4.65009,1.31149 -0.0205,-0.0114 -0.55111,0.0724 -1.17308,0.18279 -2.46178,0.43773 -4.84421,0.67668 -8.10008,0.81251 -2.47376,0.10315 -4.61297,-0.0152 -8.371673,-0.45885 -2.779216,-0.32879 -7.498715,-1.77077 -8.887267,-2.71521 z"
         style="fill:#813f0b;fill-opacity:1;stroke-width:1.00001" />
    </g>
  </g>
</svg>
