<?xml version="1.0" encoding="UTF-8" standalone="no"?>
<svg
   xmlns:dc="http://purl.org/dc/elements/1.1/"
   xmlns:cc="http://creativecommons.org/ns#"
   xmlns:rdf="http://www.w3.org/1999/02/22-rdf-syntax-ns#"
   xmlns:svg="http://www.w3.org/2000/svg"
   xmlns="http://www.w3.org/2000/svg"
   xmlns:sodipodi="http://sodipodi.sourceforge.net/DTD/sodipodi-0.dtd"
   xmlns:inkscape="http://www.inkscape.org/namespaces/inkscape"
   sodipodi:docname="HFH_community_logo_02_blue_w_bkg.svg"
   inkscape:version="1.0 (4035a4f, 2020-05-01)"
   id="svg921"
   version="1.1"
   viewBox="0 0 59 59"
   height="59mm"
   width="59mm">
  <defs
     id="defs915" />
  <sodipodi:namedview
     inkscape:window-maximized="0"
     inkscape:window-y="152"
     inkscape:window-x="1490"
     inkscape:window-height="844"
     inkscape:window-width="1440"
     fit-margin-bottom="0"
     fit-margin-right="0"
     fit-margin-left="0"
     fit-margin-top="0"
     showgrid="false"
     inkscape:document-rotation="0"
     inkscape:current-layer="layer1"
     inkscape:document-units="mm"
     inkscape:cy="230.16589"
     inkscape:cx="-599.43944"
     inkscape:zoom="0.5123908"
     inkscape:pageshadow="2"
     inkscape:pageopacity="0.0"
     borderopacity="1.0"
     bordercolor="#666666"
     pagecolor="#ffffff"
     id="base" />
  <metadata
     id="metadata918">
    <rdf:RDF>
      <cc:Work
         rdf:about="">
        <dc:format>image/svg+xml</dc:format>
        <dc:type
           rdf:resource="http://purl.org/dc/dcmitype/StillImage" />
        <dc:title />
      </cc:Work>
    </rdf:RDF>
  </metadata>
  <g
     transform="translate(-96.744048,-142.10119)"
     id="layer1"
     inkscape:groupmode="layer"
     inkscape:label="Layer 1">
    <circle
       r="28.65"
       cy="171.6012"
       cx="126.24405"
       id="circle851"
       style="fill:#bbcce1;fill-opacity:0.54251009;stroke:#235da7;stroke-width:1.7;stroke-miterlimit:4;stroke-dasharray:none;stroke-opacity:1" />
    <path
       sodipodi:nodetypes="sssssssssssss"
       id="path853"
       d="m 140.61178,152.95944 c 0.0803,1.63904 -1.61846,5.84957 -3.77479,9.35671 -4.06689,6.61458 -5.06091,14.21979 -2.35834,18.04331 0.85931,1.21567 3.11286,3.20301 6.15235,4.40279 1.16283,0.45878 2.33251,0.63528 3.27566,0.95505 0.9901,0.33622 3.40158,0.62641 4.28849,-0.29336 1.48053,-1.53576 1.35331,0.82324 -0.60421,1.77508 -1.13743,0.55279 -3.28393,0.60093 -5.15862,0.33382 -6.07065,-0.8646 -7.44544,-2.04273 -8.96947,-2.92298 -1.07525,-0.62105 -1.92402,-1.14706 -2.90316,-2.20553 -3.90487,-4.22101 -2.92007,-11.22826 2.61671,-18.61997 2.74077,-3.65893 5.50214,-8.2619 6.13639,-10.22883 1.0546,-3.27023 1.1657,-3.32123 1.29899,-0.59598 z"
       style="fill:#3876b6;fill-opacity:0.99;stroke-width:0.999997" />
    <circle
       transform="scale(-1)"
       r="4.6291904"
       cy="-189.92451"
       cx="-126.24294"
       id="circle855"
       style="fill:#3876b6;fill-opacity:0.988235;stroke:none;stroke-width:0.3;stroke-miterlimit:4;stroke-dasharray:none" />
    <path
       style="fill:#34486b;fill-opacity:1;stroke-width:0.999997"
       d="m 111.8763,190.24296 c -0.0803,-1.63905 1.61846,-5.84959 3.77479,-9.35673 4.06689,-6.61457 5.06091,-14.21979 2.35834,-18.0433 -0.85931,-1.21568 -3.11286,-3.20301 -6.15235,-4.4028 -1.16283,-0.45878 -2.33252,-0.63527 -3.27566,-0.95505 -0.9901,-0.33621 -3.40158,-0.6264 -4.28849,0.29337 -1.48053,1.53575 -1.35331,-0.82325 0.60421,-1.77508 1.13743,-0.5528 3.28393,-0.60094 5.15862,-0.33383 6.07065,0.8646 7.44544,2.04273 8.96947,2.92298 1.07525,0.62105 1.92402,1.14707 2.90317,2.20553 3.90486,4.22101 2.92006,11.22826 -2.61672,18.61997 -2.74077,3.65893 -5.50214,8.2619 -6.1364,10.22882 -1.05459,3.27025 -1.16569,3.32124 -1.29898,0.596 z"
       id="path857"
       sodipodi:nodetypes="sssssssssssss" />
    <circle
       style="fill:#34486b;fill-opacity:1;stroke:none;stroke-width:0.3;stroke-miterlimit:4;stroke-dasharray:none"
       id="circle859"
       cx="126.24768"
       cy="153.27788"
       r="4.6291904" />
    <path
       style="fill:#2aa3a2;fill-opacity:1;stroke-width:1.00001"
       d="m 107.29802,172.97083 c -1.34219,-0.83554 -1.83919,-1.75253 -1.56887,-2.8947 0.13746,-0.58149 0.56411,-1.31932 0.89315,-1.54485 0.0913,-0.0627 0.24403,-0.18772 0.33906,-0.27789 0.28191,-0.26792 1.22863,-0.78785 1.26478,-0.69467 0.0178,0.0473 -0.15718,0.25407 -0.39008,0.45941 -0.33352,0.29416 -0.47139,0.52654 -0.65038,1.09634 -0.40602,1.29332 -0.18343,2.10629 0.85768,3.13341 1.3562,1.33815 6.59514,3.10777 10.37335,3.50398 0.36701,0.0383 0.89519,0.10618 1.17396,0.15055 0.27843,0.0447 0.62573,0.0785 0.77104,0.0759 0.14513,-0.003 0.56703,0.0152 0.93729,0.0394 2.74752,0.1805 7.27004,0.019 9.61671,-0.34358 0.18897,-0.0303 0.3686,-0.0429 0.39832,-0.0303 0.0494,0.019 0.36147,-0.019 1.52928,-0.18203 0.12036,-0.0152 0.46204,-0.0622 0.76025,-0.10125 4.08697,-0.53189 7.79632,-1.58059 9.11539,-2.5771 1.09842,-0.82981 1.45378,-1.30277 1.75189,-2.33166 0.21987,-0.75967 0.23678,-0.92986 0.12624,-1.31653 -0.13686,-0.47927 -0.58594,-1.13534 -1.13458,-1.65594 l -0.34395,-0.32609 0.52689,0.21839 c 0.71701,0.29704 2.06218,1.25839 2.54296,1.81734 0.21691,0.25218 0.46426,0.68217 0.54886,0.95542 0.13447,0.43448 0.12803,0.58469 -0.0551,1.19736 -0.59766,2.00644 -3.42945,3.43963 -9.03585,4.57308 -6.6056,1.33541 -16.59574,1.30356 -22.77088,-0.0728 -2.61648,-0.58307 -5.90241,-1.82816 -7.57804,-2.87128 z m 1.72386,-0.90179 c -1.12358,-0.76428 -1.57849,-1.50963 -1.39488,-2.28567 0.12803,-0.54107 0.45821,-1.04632 1.017,-1.55513 0.42304,-0.38539 2.08306,-1.39237 2.1235,-1.28813 0.0118,0.0357 -0.22191,0.3278 -0.52467,0.64767 -0.30876,0.32609 -0.58699,0.73528 -0.63341,0.93158 -0.22636,0.95567 0.54171,2.26682 1.78491,3.0479 1.22155,0.76739 3.34206,1.45723 6.31655,2.05552 1.72381,0.34661 3.50437,0.61009 4.16141,0.61581 0.17629,0.002 0.55452,0.0152 0.84059,0.0265 2.76142,0.12931 7.42652,6.4e-4 8.90973,-0.24574 0.18958,-0.0303 0.3697,-0.047 0.39998,-0.0341 0.0836,0.0379 1.40345,-0.17823 2.63879,-0.42787 3.28829,-0.66481 5.95879,-1.91229 6.96463,-3.25336 0.79796,-1.06387 0.24786,-2.62084 -1.24105,-3.5129 -1.132,-0.67824 -0.74224,-0.63681 0.69846,0.0742 1.42185,0.70169 2.02773,1.15646 2.61005,1.95924 0.96942,1.33646 -0.40272,2.95249 -3.48895,4.11054 -1.08694,0.40782 -4.50818,1.3727 -4.65009,1.31149 -0.0205,-0.0114 -0.55111,0.0724 -1.17308,0.18279 -2.46178,0.43773 -4.84421,0.67668 -8.10008,0.81251 -2.47376,0.10315 -4.61297,-0.0152 -8.37168,-0.45885 -2.77921,-0.32879 -7.49871,-1.77077 -8.88726,-2.71521 z"
       id="path861" />
  </g>
</svg>
